<?xml version="1.0" encoding="UTF-8" standalone="no"?>
<svg
   version="1.1"
   x="0px"
   y="0px"
   viewBox="0 0 512 512"
   style="enable-background:new 0 0 512 512;"
   xml:space="preserve"
   id="svg12"
   sodipodi:docname="compare.svg"
   inkscape:version="1.1.2 (0a00cf5339, 2022-02-04)"
   xmlns:inkscape="http://www.inkscape.org/namespaces/inkscape"
   xmlns:sodipodi="http://sodipodi.sourceforge.net/DTD/sodipodi-0.dtd"
   xmlns="http://www.w3.org/2000/svg"
   xmlns:svg="http://www.w3.org/2000/svg"><defs
     id="defs16" /><sodipodi:namedview
     id="namedview14"
     pagecolor="#ffffff"
     bordercolor="#666666"
     borderopacity="1.0"
     inkscape:pageshadow="2"
     inkscape:pageopacity="0.0"
     inkscape:pagecheckerboard="0"
     showgrid="false"
     inkscape:zoom="0.56940082"
     inkscape:cx="152.79219"
     inkscape:cy="157.18277"
     inkscape:window-width="1920"
     inkscape:window-height="1016"
     inkscape:window-x="0"
     inkscape:window-y="27"
     inkscape:window-maximized="1"
     inkscape:current-layer="svg12" /><rect
     style="fill:#f2f2f2;fill-opacity:0.999117;stroke-width:5.91496"
     id="rect872"
     width="755.45239"
     height="685.54401"
     x="-165.28423"
     y="-80.061096" /><g
     id="g830"
     transform="matrix(0.74362441,0,0,0.74362441,65.632149,65.914165)"
     style="stroke-width:1.34477"><path
       d="m 470.7,360 h -80.1 c -3.4,-9.6 -12.5,-16 -22.6,-16 h -47.7 c -18,0 -33.7,12 -38.5,29.3 L 256,466.1 230.2,373.3 C 225.4,356 209.6,344 191.7,344 H 144 c -10.2,0 -19.2,6.4 -22.6,16 H 41.3 c -13.6,0 -24.7,11 -24.7,24.7 0,12.1 8.7,22.3 20.6,24.3 L 164,430.1 c 3.2,0.5 5.8,3 6.5,6.2 l 13.7,61.5 15.6,-3.5 -13.7,-61.5 c -2.1,-9.6 -9.8,-16.9 -19.5,-18.5 L 39.9,393.2 c -2.2,-0.4 -4.2,-1.6 -5.5,-3.3 -2.9,-3.8 -2.1,-9.3 1.7,-12.1 1.5,-1.1 3.3,-1.7 5.2,-1.7 h 80.1 c 3.4,9.6 12.5,16 22.6,16 h 25.4 c 2.1,0 4.2,0.8 5.7,2.3 l 11.3,11.3 11.3,-11.3 -11.4,-11.4 c -4.5,-4.5 -10.6,-7 -17,-7 H 144 c -4.4,0 -8,-3.6 -8,-8 0,-4.4 3.6,-8 8,-8 h 47.7 c 10.8,0 20.2,7.2 23.1,17.6 l 33.5,120.6 7.7,-2.1 7.7,2.1 33.5,-120.6 C 300.1,367.2 309.6,360 320.3,360 H 368 c 4.4,0 8,3.6 8,8 0,4.4 -3.6,8 -8,8 h -25.4 c -6.4,0 -12.5,2.5 -17,7 l -11.3,11.3 11.3,11.3 11.3,-11.3 c 1.5,-1.5 3.5,-2.3 5.7,-2.3 H 368 c 10.2,0 19.2,-6.4 22.6,-16 h 80.1 c 4.8,0 8.7,3.9 8.7,8.7 0,1.9 -0.6,3.7 -1.7,5.2 -1.3,1.8 -3.3,3 -5.5,3.3 l -126.8,21.1 c -9.7,1.6 -17.4,8.9 -19.5,18.5 l -13.7,61.5 15.6,3.5 13.7,-61.5 c 0.7,-3.2 3.3,-5.6 6.5,-6.2 L 474.7,409 C 488.1,406.8 497.2,394.1 495,380.6 493,368.7 482.7,360 470.7,360 Z"
       id="path2"
       style="fill:#125e6b;fill-opacity:1;stroke-width:1.34477" /><path
       d="M 472,16 H 296 c -13.2,0 -24,10.8 -24,24 v 96 h 16 V 40 c 0,-4.4 3.6,-8 8,-8 h 24 v 72 h 64 V 32 h 88 c 4.4,0 8,3.6 8,8 v 264 c 0,4.4 -3.6,8 -8,8 H 296 c -4.4,0 -8,-3.6 -8,-8 v -16 h -16 v 16 c 0,13.2 10.8,24 24,24 h 176 c 13.2,0 24,-10.8 24,-24 V 40 C 496,26.8 485.2,16 472,16 Z M 368,88 H 336 V 32 h 32 z"
       id="path4"
       style="fill:#125e6b;fill-opacity:1;stroke-width:1.34477" /><path
       d="m 40,328 h 176 c 13.2,0 24,-10.8 24,-24 v -72 h -16 v 72 c 0,4.4 -3.6,8 -8,8 H 40 c -4.4,0 -8,-3.6 -8,-8 V 40 c 0,-4.4 3.6,-8 8,-8 h 24 v 72 h 64 V 32 h 88 c 4.4,0 8,3.6 8,8 v 48 h 16 V 40 C 240,26.8 229.2,16 216,16 H 40 C 26.8,16 16,26.8 16,40 v 264 c 0,13.2 10.8,24 24,24 z M 80,32 h 32 V 88 H 80 Z"
       id="path6"
       style="fill:#125e6b;fill-opacity:1;stroke-width:1.34477" /><path
       d="m 227.3,104 c -6.2,-6.2 -16.4,-6.2 -22.6,0 -3,3 -4.7,7.1 -4.7,11.3 v 4.7 h -72 c -13.2,0 -24,10.8 -24,24 v 16 c 0,13.2 10.8,24 24,24 h 72 v 10.7 c 0,6.7 4.1,12.7 10.4,15 1.8,0.7 3.7,1 5.7,1 4.6,0 9,-2 12,-5.5 l 32.1,-36.7 c 8.3,-9.5 7.8,-23.8 -1.1,-32.8 z m 20.8,54 -32.1,36.7 V 168 h -88 c -4.4,0 -8,-3.6 -8,-8 v -16 c 0,-4.4 3.6,-8 8,-8 h 88 v -20.7 l 31.8,31.8 c 2.9,3 3.1,7.7 0.3,10.9 z"
       id="path8"
       style="fill:#125e6b;fill-opacity:1;stroke-width:1.34477" /><path
       d="m 302.1,164.5 c -6,-2.5 -12.9,-1.1 -17.4,3.5 l -31.8,31.8 c -8.9,8.9 -9.4,23.3 -1.1,32.8 l 32.1,36.7 c 3,3.5 7.4,5.5 12,5.5 1.9,0 3.9,-0.4 5.7,-1 6.3,-2.3 10.4,-8.3 10.4,-15 V 248 h 72 c 13.2,0 24,-10.8 24,-24 v -16 c 0,-13.2 -10.8,-24 -24,-24 h -72 v -4.7 c 0,-6.5 -3.9,-12.3 -9.9,-14.8 z m -6,14.8 c -0.1,0 -0.1,0 0,0 z M 384,200 c 4.4,0 8,3.6 8,8 v 16 c 0,4.4 -3.6,8 -8,8 h -88 v 26.7 L 263.9,222 c -2.8,-3.2 -2.6,-7.9 0.4,-10.9 l 31.8,-31.8 V 200 Z"
       id="path10"
       style="fill:#125e6b;fill-opacity:1;stroke-width:1.34477" /></g></svg>
