<?xml version="1.0" encoding="UTF-8" standalone="no"?>
<svg
   version="1.1"
   x="0px"
   y="0px"
   viewBox="0 0 512 512"
   style="enable-background:new 0 0 512 512;"
   xml:space="preserve"
   id="svg12"
   sodipodi:docname="compare_blanc.svg"
   inkscape:version="1.1.2 (0a00cf5339, 2022-02-04)"
   xmlns:inkscape="http://www.inkscape.org/namespaces/inkscape"
   xmlns:sodipodi="http://sodipodi.sourceforge.net/DTD/sodipodi-0.dtd"
   xmlns="http://www.w3.org/2000/svg"
   xmlns:svg="http://www.w3.org/2000/svg"><defs
     id="defs16" /><sodipodi:namedview
     id="namedview14"
     pagecolor="#ffffff"
     bordercolor="#666666"
     borderopacity="1.0"
     inkscape:pageshadow="2"
     inkscape:pageopacity="0.0"
     inkscape:pagecheckerboard="0"
     showgrid="false"
     inkscape:zoom="0.56940082"
     inkscape:cx="152.79219"
     inkscape:cy="157.18277"
     inkscape:window-width="1920"
     inkscape:window-height="1016"
     inkscape:window-x="0"
     inkscape:window-y="27"
     inkscape:window-maximized="1"
     inkscape:current-layer="svg12" /><path
     d="M470.7,360h-80.1c-3.4-9.6-12.5-16-22.6-16h-47.7c-18,0-33.7,12-38.5,29.3L256,466.1l-25.8-92.8  c-4.8-17.3-20.6-29.3-38.5-29.3H144c-10.2,0-19.2,6.4-22.6,16H41.3c-13.6,0-24.7,11-24.7,24.7c0,12.1,8.7,22.3,20.6,24.3L164,430.1  c3.2,0.5,5.8,3,6.5,6.2l13.7,61.5l15.6-3.5l-13.7-61.5c-2.1-9.6-9.8-16.9-19.5-18.5L39.9,393.2c-2.2-0.4-4.2-1.6-5.5-3.3  c-2.9-3.8-2.1-9.3,1.7-12.1c1.5-1.1,3.3-1.7,5.2-1.7h80.1c3.4,9.6,12.5,16,22.6,16h25.4c2.1,0,4.2,0.8,5.7,2.3l11.3,11.3l11.3-11.3  L186.3,383c-4.5-4.5-10.6-7-17-7H144c-4.4,0-8-3.6-8-8s3.6-8,8-8h47.7c10.8,0,20.2,7.2,23.1,17.6l33.5,120.6l7.7-2.1l7.7,2.1  l33.5-120.6c2.9-10.4,12.4-17.6,23.1-17.6H368c4.4,0,8,3.6,8,8s-3.6,8-8,8h-25.4c-6.4,0-12.5,2.5-17,7l-11.3,11.3l11.3,11.3  l11.3-11.3c1.5-1.5,3.5-2.3,5.7-2.3H368c10.2,0,19.2-6.4,22.6-16h80.1c4.8,0,8.7,3.9,8.7,8.7c0,1.9-0.6,3.7-1.7,5.2  c-1.3,1.8-3.3,3-5.5,3.3l-126.8,21.1c-9.7,1.6-17.4,8.9-19.5,18.5l-13.7,61.5l15.6,3.5l13.7-61.5c0.7-3.2,3.3-5.6,6.5-6.2L474.7,409  c13.4-2.2,22.5-14.9,20.3-28.4C493,368.7,482.7,360,470.7,360z"
     id="path2"
     style="fill:#ffffff;fill-opacity:1" /><path
     d="M472,16H296c-13.2,0-24,10.8-24,24v96h16V40c0-4.4,3.6-8,8-8h24v72h64V32h88c4.4,0,8,3.6,8,8v264c0,4.4-3.6,8-8,8H296  c-4.4,0-8-3.6-8-8v-16h-16v16c0,13.2,10.8,24,24,24h176c13.2,0,24-10.8,24-24V40C496,26.8,485.2,16,472,16z M368,88h-32V32h32V88z"
     id="path4"
     style="fill:#ffffff;fill-opacity:1" /><path
     d="M40,328h176c13.2,0,24-10.8,24-24v-72h-16v72c0,4.4-3.6,8-8,8H40c-4.4,0-8-3.6-8-8V40c0-4.4,3.6-8,8-8h24v72h64V32h88  c4.4,0,8,3.6,8,8v48h16V40c0-13.2-10.8-24-24-24H40c-13.2,0-24,10.8-24,24v264C16,317.2,26.8,328,40,328z M80,32h32v56H80V32z"
     id="path6"
     style="fill:#ffffff;fill-opacity:1" /><path
     d="M227.3,104c-6.2-6.2-16.4-6.2-22.6,0c-3,3-4.7,7.1-4.7,11.3v4.7h-72c-13.2,0-24,10.8-24,24v16c0,13.2,10.8,24,24,24h72v10.7  c0,6.7,4.1,12.7,10.4,15c1.8,0.7,3.7,1,5.7,1c4.6,0,9-2,12-5.5l32.1-36.7c8.3-9.5,7.8-23.8-1.1-32.8L227.3,104L227.3,104z   M248.1,158L216,194.7V168h-88c-4.4,0-8-3.6-8-8v-16c0-4.4,3.6-8,8-8h88l0-20.7l31.8,31.8C250.7,150.1,250.9,154.8,248.1,158z"
     id="path8"
     style="fill:#ffffff;fill-opacity:1" /><path
     d="M302.1,164.5c-6-2.5-12.9-1.1-17.4,3.5l-31.8,31.8c-8.9,8.9-9.4,23.3-1.1,32.8l32.1,36.7c3,3.5,7.4,5.5,12,5.5  c1.9,0,3.9-0.4,5.7-1c6.3-2.3,10.4-8.3,10.4-15V248h72c13.2,0,24-10.8,24-24v-16c0-13.2-10.8-24-24-24h-72v-4.7  C312,172.8,308.1,167,302.1,164.5z M296.1,179.3C296,179.3,296,179.3,296.1,179.3L296.1,179.3z M384,200c4.4,0,8,3.6,8,8v16  c0,4.4-3.6,8-8,8h-88l0,26.7L263.9,222c-2.8-3.2-2.6-7.9,0.4-10.9l31.8-31.8V200H384z"
     id="path10"
     style="fill:#ffffff;fill-opacity:1" /></svg>
