<?xml version="1.0" encoding="UTF-8" standalone="no"?>
<svg
   width="1200pt"
   height="1200pt"
   version="1.1"
   viewBox="0 0 1200 1200"
   id="svg20"
   sodipodi:docname="credits.svg"
   inkscape:version="1.1.2 (0a00cf5339, 2022-02-04)"
   xmlns:inkscape="http://www.inkscape.org/namespaces/inkscape"
   xmlns:sodipodi="http://sodipodi.sourceforge.net/DTD/sodipodi-0.dtd"
   xmlns="http://www.w3.org/2000/svg"
   xmlns:svg="http://www.w3.org/2000/svg">
  <defs
     id="defs24" />
  <sodipodi:namedview
     id="namedview22"
     pagecolor="#ffffff"
     bordercolor="#666666"
     borderopacity="1.0"
     inkscape:pageshadow="2"
     inkscape:pageopacity="0.0"
     inkscape:pagecheckerboard="0"
     inkscape:document-units="pt"
     showgrid="false"
     inkscape:zoom="0.5275"
     inkscape:cx="800.94787"
     inkscape:cy="800.94787"
     inkscape:window-width="1920"
     inkscape:window-height="1016"
     inkscape:window-x="0"
     inkscape:window-y="27"
     inkscape:window-maximized="1"
     inkscape:current-layer="svg20" />
  <g
     id="g18"
     style="fill:#ffffff;fill-opacity:1">
    <path
       d="M 951,105 H 249 v 990 H 798.24 L 951,942.24 Z M 795,1056 V 939 H 912 Z M 921,909.24 H 765 v 156 H 279 V 135 h 642 z"
       id="path2"
       style="fill:#ffffff;fill-opacity:1" />
    <path
       d="m 420,237 h 360 v 30 H 420 Z"
       id="path4"
       style="fill:#ffffff;fill-opacity:1" />
    <path
       d="m 348,345 h 504 v 30 H 348 Z"
       id="path6"
       style="fill:#ffffff;fill-opacity:1" />
    <path
       d="m 348,441 h 504 v 30 H 348 Z"
       id="path8"
       style="fill:#ffffff;fill-opacity:1" />
    <path
       d="m 348,537 h 504 v 30 H 348 Z"
       id="path10"
       style="fill:#ffffff;fill-opacity:1" />
    <path
       d="m 348,633 h 504 v 30 H 348 Z"
       id="path12"
       style="fill:#ffffff;fill-opacity:1" />
    <path
       d="m 348,729 h 396 v 30 H 348 Z"
       id="path14"
       style="fill:#ffffff;fill-opacity:1" />
    <path
       d="m 498,813 c -24.664,0 -48.32,9.7969 -65.762,27.238 C 414.797,857.679 405,881.336 405,906 c 0,24.664 9.7969,48.32 27.238,65.762 C 449.679,989.203 473.336,999 498,999 c 24.664,0 48.32,-9.7969 65.762,-27.238 C 581.203,954.321 591,930.664 591,906 590.96875,881.344 581.1602,857.707 563.727,840.273 546.293,822.839 522.657,813.031 498,813 Z m 0,156 c -16.707,0 -32.734,-6.6367 -44.547,-18.453 C 441.637,938.735 435,922.707 435,906 c 0,-16.707 6.6367,-32.734 18.453,-44.547 C 465.265,849.637 481.293,843 498,843 c 16.707,0 32.734,6.6367 44.547,18.453 C 554.363,873.265 561,889.293 561,906 c -0.0312,16.699 -6.6797,32.703 -18.488,44.512 C 530.703,962.321 514.7,968.969 498,969 Z"
       id="path16"
       style="fill:#ffffff;fill-opacity:1" />
  </g>
</svg>
