<?xml version="1.0" encoding="UTF-8" standalone="no"?>
<svg
   version="1.1"
   x="0px"
   y="0px"
   viewBox="0 0 100 100"
   enable-background="new 0 0 100 100"
   xml:space="preserve"
   id="svg4"
   sodipodi:docname="admin.svg"
   inkscape:version="1.1.2 (0a00cf5339, 2022-02-04)"
   xmlns:inkscape="http://www.inkscape.org/namespaces/inkscape"
   xmlns:sodipodi="http://sodipodi.sourceforge.net/DTD/sodipodi-0.dtd"
   xmlns="http://www.w3.org/2000/svg"
   xmlns:svg="http://www.w3.org/2000/svg"><defs
     id="defs8" /><sodipodi:namedview
     id="namedview6"
     pagecolor="#ffffff"
     bordercolor="#666666"
     borderopacity="1.0"
     inkscape:pageshadow="2"
     inkscape:pageopacity="0.0"
     inkscape:pagecheckerboard="0"
     showgrid="false"
     inkscape:zoom="2.400539"
     inkscape:cx="-22.703235"
     inkscape:cy="63.110826"
     inkscape:window-width="1920"
     inkscape:window-height="1016"
     inkscape:window-x="0"
     inkscape:window-y="27"
     inkscape:window-maximized="1"
     inkscape:current-layer="svg4" /><path
     d="m 79.511467,59.520983 c -2.096437,0 -4.192874,0.571756 -5.908141,1.334096 C 73.03157,60.163255 67.119617,54.69346 59.309436,52.086254 66.551673,47.321624 70.744548,38.937782 69.599131,29.978372 68.265034,19.686771 59.879286,11.301022 49.587685,10.157511 43.107788,9.3951702 36.627892,11.491607 31.672676,15.875067 c -4.955215,4.383459 -7.623407,10.482186 -7.623407,17.152668 0,7.813993 4.002289,15.05623 10.482185,19.249105 -8.004578,2.666287 -14.865645,8.195163 -19.630275,15.246815 -2.668193,4.192875 -1.905852,9.910431 2.096437,12.769209 8.95941,6.291217 19.251011,9.721751 30.114367,9.721751 12.399473,0 22.534794,-4.95331 24.440646,-6.506579 2.250811,1.781972 5.016202,2.694875 8.149423,2.694875 7.432823,0 13.340964,-5.908141 13.340964,-13.340964 C 92.852431,65.429124 86.94429,59.520983 79.511467,59.520983 Z M 28.053464,32.839055 c 0,-5.336385 2.287022,-10.672771 6.289311,-14.293889 3.621119,-3.239949 8.004578,-4.76463 12.578623,-4.76463 0.762341,0 1.524682,0 2.287022,0.190585 8.576334,0.952926 15.627987,7.813993 16.580913,16.390327 1.145417,8.957504 -4.002289,17.343253 -12.578623,20.392616 l -6.098727,2.287022 -6.289311,-2.287022 C 33.199264,48.085871 28.053464,40.843634 28.053464,32.839055 Z m -8.385749,44.215766 c -2.287023,-1.715267 -2.858778,-5.1458 -1.334097,-7.623408 4.955216,-7.623408 13.150379,-13.150378 22.107883,-14.865645 l 6.670482,-1.334097 6.670482,1.334097 c 6.289312,1.143511 12.006868,4.190968 16.771498,8.576334 -2.668193,2.287022 -4.38346,5.908141 -4.38346,9.719845 0,2.973129 0.918621,5.578429 2.555748,7.825428 -5.119119,3.022681 -13.472468,5.515536 -21.614268,5.515536 -9.91043,0 -19.43969,-3.239949 -27.444268,-9.14809 z m 64.798967,2.477608 -4.955215,-2.668193 -4.955215,2.668193 0.952926,-5.526971 -4.004195,-3.811704 5.52697,-0.760435 2.479514,-4.957121 2.477607,4.957121 5.526971,0.760435 -4.004195,3.811704 z"
     id="path2"
     style="stroke-width:1.90585;fill:#ffffff;fill-opacity:1" /></svg>
