<?xml version="1.0" encoding="UTF-8" standalone="no"?>
<svg
   version="1.1"
   x="0px"
   y="0px"
   viewBox="0 0 100 100"
   style="enable-background:new 0 0 100 100;"
   xml:space="preserve"
   id="svg4"
   sodipodi:docname="base.svg"
   inkscape:version="1.1.2 (0a00cf5339, 2022-02-04)"
   xmlns:inkscape="http://www.inkscape.org/namespaces/inkscape"
   xmlns:sodipodi="http://sodipodi.sourceforge.net/DTD/sodipodi-0.dtd"
   xmlns="http://www.w3.org/2000/svg"
   xmlns:svg="http://www.w3.org/2000/svg"><defs
     id="defs8" /><sodipodi:namedview
     id="namedview6"
     pagecolor="#ffffff"
     bordercolor="#666666"
     borderopacity="1.0"
     inkscape:pageshadow="2"
     inkscape:pageopacity="0.0"
     inkscape:pagecheckerboard="0"
     showgrid="false"
     inkscape:zoom="8.44"
     inkscape:cx="49.940758"
     inkscape:cy="48.874408"
     inkscape:window-width="1920"
     inkscape:window-height="1016"
     inkscape:window-x="0"
     inkscape:window-y="27"
     inkscape:window-maximized="1"
     inkscape:current-layer="svg4" /><path
     d="M28,32c0-12.131,9.869-22,22-22s22,9.869,22,22s-9.869,22-22,22S28,44.131,28,32z M66.569,52.02  c-0.811,0.673-1.668,1.292-2.558,1.864C64.009,53.923,64,53.96,64,54h-0.169c-4.009,2.53-8.75,4-13.831,4s-9.822-1.47-13.831-4H36  c0-0.04-0.009-0.077-0.012-0.116c-0.89-0.572-1.746-1.191-2.558-1.864C24.32,52.447,17,63.036,17,76c0,8.013,17.423,14,33,14  s33-5.987,33-14C83,63.036,75.68,52.447,66.569,52.02z"
     id="path2"
     style="fill:#ffffff;fill-opacity:1" /></svg>
