<?xml version="1.0" encoding="UTF-8" standalone="no"?>
<svg
   version="1.1"
   x="0px"
   y="0px"
   viewBox="0 0 64 64"
   enable-background="new 0 0 64 64"
   xml:space="preserve"
   id="svg38"
   sodipodi:docname="amis_suiveurs.svg"
   inkscape:version="1.1.2 (0a00cf5339, 2022-02-04)"
   xmlns:inkscape="http://www.inkscape.org/namespaces/inkscape"
   xmlns:sodipodi="http://sodipodi.sourceforge.net/DTD/sodipodi-0.dtd"
   xmlns="http://www.w3.org/2000/svg"
   xmlns:svg="http://www.w3.org/2000/svg"><defs
     id="defs42" /><sodipodi:namedview
     id="namedview40"
     pagecolor="#ffffff"
     bordercolor="#666666"
     borderopacity="1.0"
     inkscape:pageshadow="2"
     inkscape:pageopacity="0.0"
     inkscape:pagecheckerboard="0"
     showgrid="false"
     inkscape:zoom="13.1875"
     inkscape:cx="32.037915"
     inkscape:cy="32.037915"
     inkscape:window-width="1920"
     inkscape:window-height="1016"
     inkscape:window-x="0"
     inkscape:window-y="27"
     inkscape:window-maximized="1"
     inkscape:current-layer="svg38" /><g
     id="g1009"
     style="fill:#f37e1e;fill-opacity:1"><path
       d="m 42.617,34.415 c -1.303,0 -2.611,-0.279 -3.825,-0.854 -0.499,-0.236 -0.713,-0.832 -0.477,-1.331 0.235,-0.498 0.832,-0.715 1.332,-0.477 2.579,1.221 5.707,0.729 7.787,-1.224 2.108,-1.979 2.78,-5.106 1.674,-7.781 -1.108,-2.68 -3.765,-4.42 -6.692,-4.32 -2.867,0.095 -5.502,2.051 -6.407,4.758 -0.175,0.524 -0.74,0.806 -1.266,0.631 -0.523,-0.175 -0.807,-0.741 -0.631,-1.266 1.184,-3.538 4.494,-5.999 8.237,-6.122 3.724,-0.118 7.183,2.109 8.606,5.555 1.423,3.438 0.559,7.459 -2.152,10.004 -1.694,1.59 -3.931,2.427 -6.186,2.427 z"
       id="path6"
       style="fill:#f37e1e;fill-opacity:1" /><path
       d="m 42.681,51.707 c -0.967,0 -1.937,-0.033 -2.909,-0.102 -0.551,-0.039 -0.966,-0.517 -0.927,-1.067 0.038,-0.552 0.5,-0.961 1.067,-0.928 5.489,0.386 10.894,-0.374 16.062,-2.255 0.518,-0.189 1.093,0.079 1.281,0.598 0.189,0.52 -0.078,1.093 -0.598,1.282 -4.518,1.644 -9.208,2.472 -13.976,2.472 z"
       id="path8"
       style="fill:#f37e1e;fill-opacity:1" /><path
       d="m 56.315,49.296 c -0.408,0 -0.792,-0.253 -0.939,-0.659 -0.189,-0.519 0.078,-1.093 0.598,-1.281 C 56.588,47.132 57,46.543 57,45.89 c 0,-0.553 0.447,-1 1,-1 0.553,0 1,0.447 1,1 0,1.491 -0.941,2.835 -2.343,3.346 -0.112,0.04 -0.228,0.06 -0.342,0.06 z"
       id="path10"
       style="fill:#f37e1e;fill-opacity:1" /><path
       d="m 58,42.434 c -0.553,0 -1,-0.447 -1,-1 0,-2.288 -1.15,-4.391 -3.077,-5.624 -0.465,-0.298 -0.601,-0.917 -0.303,-1.382 0.297,-0.465 0.915,-0.602 1.381,-0.303 2.504,1.603 3.999,4.335 3.999,7.309 0,0.552 -0.447,1 -1,1 z"
       id="path12"
       style="fill:#f37e1e;fill-opacity:1" /><path
       d="m 54.461,35.967 c -0.185,0 -0.371,-0.051 -0.538,-0.158 -2.123,-1.359 -4.449,-2.315 -6.916,-2.842 -0.54,-0.115 -0.884,-0.646 -0.769,-1.187 0.114,-0.541 0.647,-0.886 1.187,-0.77 2.702,0.576 5.251,1.624 7.576,3.114 0.466,0.298 0.601,0.917 0.303,1.382 -0.191,0.299 -0.514,0.461 -0.843,0.461 z"
       id="path14"
       style="fill:#f37e1e;fill-opacity:1" /><path
       d="m 58,46.89 c -0.553,0 -1,-0.448 -1,-1 v -4.456 c 0,-0.552 0.447,-1 1,-1 0.553,0 1,0.448 1,1 v 4.456 c 0,0.551 -0.447,1 -1,1 z"
       id="path16"
       style="fill:#f37e1e;fill-opacity:1" /><path
       d="m 38.193,33.076 c -0.191,0 -0.384,-0.055 -0.555,-0.168 -2.887,-1.931 -4.416,-5.396 -3.896,-8.829 0.082,-0.546 0.589,-0.922 1.138,-0.839 0.546,0.082 0.922,0.592 0.839,1.138 -0.403,2.671 0.786,5.366 3.031,6.867 0.459,0.307 0.583,0.928 0.275,1.387 -0.192,0.289 -0.509,0.444 -0.832,0.444 z"
       id="path4"
       style="fill:#f37e1e;fill-opacity:1" /></g><g
     id="g1000"
     style="fill:#155e6a;fill-opacity:1"><path
       d="m 25.218,32.176 c -0.001,0 -0.001,0 0,0 -2.702,0 -5.285,-0.962 -7.273,-2.709 -3.782,-3.322 -4.823,-8.958 -2.476,-13.4 1.881,-3.56 5.724,-5.86 9.788,-5.86 0.888,0 1.772,0.108 2.629,0.324 4.817,1.209 8.314,5.695 8.314,10.669 0,3.56 -1.735,6.916 -4.643,8.978 -1.843,1.306 -4.036,1.998 -6.339,1.998 z m 0.039,-19.97 c -3.333,0 -6.48,1.882 -8.02,4.795 -1.921,3.634 -1.068,8.245 2.026,10.963 1.624,1.427 3.737,2.212 5.953,2.212 0,0 0,0 10e-4,0 1.887,0 3.679,-0.563 5.183,-1.63 2.379,-1.688 3.8,-4.435 3.8,-7.347 0,-4.069 -2.86,-7.74 -6.801,-8.729 -0.698,-0.175 -1.419,-0.264 -2.142,-0.264 z"
       id="path2"
       style="fill:#155e6a;fill-opacity:1" /><path
       d="m 6,42.21 c -0.552,0 -1,-0.447 -1,-1 0,-3.631 1.825,-6.968 4.883,-8.927 0.466,-0.299 1.084,-0.162 1.382,0.303 0.298,0.466 0.162,1.084 -0.303,1.382 C 8.481,35.557 7,38.264 7,41.21 c 0,0.553 -0.447,1 -1,1 z"
       id="path18"
       style="fill:#155e6a;fill-opacity:1" /><path
       d="m 44.4,42.21 c -0.553,0 -1,-0.447 -1,-1 0,-2.945 -1.481,-5.653 -3.962,-7.242 -0.466,-0.298 -0.601,-0.916 -0.303,-1.382 0.297,-0.466 0.916,-0.601 1.381,-0.303 3.059,1.959 4.884,5.296 4.884,8.927 0,0.553 -0.447,1 -1,1 z"
       id="path20"
       style="fill:#155e6a;fill-opacity:1" /><path
       d="m 10.424,34.126 c -0.33,0 -0.652,-0.163 -0.844,-0.461 -0.298,-0.465 -0.162,-1.084 0.304,-1.382 2.882,-1.846 6.041,-3.145 9.389,-3.858 0.538,-0.119 1.071,0.229 1.187,0.769 0.115,0.541 -0.229,1.072 -0.769,1.188 -3.112,0.664 -6.049,1.871 -8.729,3.587 -0.167,0.106 -0.354,0.157 -0.538,0.157 z"
       id="path22"
       style="fill:#155e6a;fill-opacity:1" /><path
       d="m 39.977,34.126 c -0.185,0 -0.371,-0.051 -0.538,-0.158 -2.68,-1.716 -5.616,-2.923 -8.729,-3.587 -0.54,-0.115 -0.885,-0.646 -0.77,-1.188 0.115,-0.54 0.645,-0.888 1.187,-0.769 3.349,0.714 6.507,2.013 9.39,3.858 0.465,0.298 0.601,0.917 0.303,1.382 -0.191,0.299 -0.514,0.462 -0.843,0.462 z"
       id="path24"
       style="fill:#155e6a;fill-opacity:1" /><path
       d="m 6,47.779 c -0.552,0 -1,-0.447 -1,-1 V 41.21 c 0,-0.552 0.448,-1 1,-1 0.553,0 1,0.448 1,1 v 5.569 c 0,0.553 -0.447,1 -1,1 z"
       id="path26"
       style="fill:#155e6a;fill-opacity:1" /><path
       d="m 8.106,50.787 c -0.114,0 -0.229,-0.02 -0.342,-0.061 C 6.111,50.125 5,48.539 5,46.779 c 0,-0.552 0.448,-1 1,-1 0.553,0 1,0.448 1,1 0,0.922 0.582,1.752 1.448,2.067 0.519,0.188 0.786,0.763 0.598,1.281 -0.148,0.407 -0.531,0.66 -0.94,0.66 z"
       id="path28"
       style="fill:#155e6a;fill-opacity:1" /><path
       d="m 25.2,53.794 c -5.907,0 -11.814,-1.022 -17.436,-3.067 -0.52,-0.189 -0.787,-0.763 -0.599,-1.282 0.189,-0.52 0.763,-0.787 1.282,-0.598 10.803,3.931 22.701,3.931 33.504,0 0.517,-0.188 1.093,0.079 1.281,0.598 0.189,0.52 -0.078,1.093 -0.598,1.282 -5.619,2.044 -11.527,3.067 -17.434,3.067 z"
       id="path30"
       style="fill:#155e6a;fill-opacity:1" /><path
       d="m 44.4,47.779 c -0.553,0 -1,-0.447 -1,-1 V 41.21 c 0,-0.552 0.447,-1 1,-1 0.553,0 1,0.448 1,1 v 5.569 c 0,0.553 -0.447,1 -1,1 z"
       id="path32"
       style="fill:#155e6a;fill-opacity:1" /><path
       d="m 42.294,50.787 c -0.408,0 -0.792,-0.253 -0.939,-0.659 -0.189,-0.519 0.079,-1.093 0.598,-1.281 0.866,-0.315 1.448,-1.146 1.448,-2.067 0,-0.552 0.447,-1 1,-1 0.553,0 1,0.448 1,1 0,1.76 -1.111,3.346 -2.765,3.947 -0.114,0.041 -0.229,0.06 -0.342,0.06 z"
       id="path34"
       style="fill:#155e6a;fill-opacity:1" /></g></svg>
