<?xml version="1.0" encoding="UTF-8" standalone="no"?>
<svg
   width="1200pt"
   height="1200pt"
   version="1.1"
   viewBox="0 0 1200 1200"
   id="svg4"
   sodipodi:docname="destroy.svg"
   inkscape:version="1.1.2 (0a00cf5339, 2022-02-04)"
   xmlns:inkscape="http://www.inkscape.org/namespaces/inkscape"
   xmlns:sodipodi="http://sodipodi.sourceforge.net/DTD/sodipodi-0.dtd"
   xmlns="http://www.w3.org/2000/svg"
   xmlns:svg="http://www.w3.org/2000/svg">
  <defs
     id="defs8" />
  <sodipodi:namedview
     id="namedview6"
     pagecolor="#ffffff"
     bordercolor="#666666"
     borderopacity="1.0"
     inkscape:pageshadow="2"
     inkscape:pageopacity="0.0"
     inkscape:pagecheckerboard="0"
     inkscape:document-units="pt"
     showgrid="false"
     inkscape:zoom="0.5275"
     inkscape:cx="800.94787"
     inkscape:cy="800"
     inkscape:window-width="1920"
     inkscape:window-height="1043"
     inkscape:window-x="1920"
     inkscape:window-y="0"
     inkscape:window-maximized="1"
     inkscape:current-layer="svg4" />
  <path
     d="m1139.9 580.78h-140.21v-255.91-0.10547c0-1.8828-0.21094-3.7109-0.59375-5.4766-0.042969-0.19922-0.125-0.375-0.1875-0.57422-0.28125-1.2734-0.64844-2.5195-1.1406-3.6992 0-0.019531-0.019531-0.042969-0.019531-0.0625-0.10547-0.24219-0.21875-0.49219-0.30469-0.73047-0.16797-0.33594-0.36719-0.63672-0.53125-0.97266-0.63672-1.2539-1.2852-2.457-2.1016-3.5859-0.26172-0.38672-0.59375-0.71094-0.87891-1.0859-0.73047-0.91016-1.4727-1.8164-2.3086-2.6211-0.1875-0.15625-0.34375-0.32422-0.51172-0.48047l-0.042968-0.03125c-0.019532-0.011719-0.042969-0.03125-0.0625-0.050781l-246.27-246.34c-0.042969-0.050781-0.10547-0.09375-0.14453-0.15625-1.0859-1.6836-2.3945-3.2188-3.8125-4.5977-0.32422-0.30469-0.66797-0.54297-1.0234-0.82422-1.1602-1.0117-2.4023-1.9219-3.7305-2.7188-0.53125-0.30469-1.0469-0.57422-1.5664-0.84766-1.3047-0.66016-2.6523-1.1914-4.0859-1.6289-0.53125-0.16797-1.0469-0.36719-1.5898-0.49219-1.9453-0.45703-3.9727-0.77344-6.0547-0.77344h-0.019532-496.3c-14.434 0-26.125 11.695-26.125 26.125v507.63h-140.21v121.92l137.59 0.003906v445.92h39.488l0.003906-445.92h23.699v445.92h39.488v-445.92h23.699v445.92h39.488l0.003906-445.92h23.691v445.92h39.488v-445.92h23.691v445.92h39.488v-445.92h23.691v445.92h39.488v-445.92h23.691v445.92h39.488v-445.92h23.699v445.92h39.48v-445.92h23.699v445.92l39.492-0.003906v-445.91h23.699v445.92h39.488l0.003906-445.92h23.691v445.92h39.488v-445.92h23.699v445.92h39.488l0.003906-445.92h23.691v445.92h39.488v-445.92h144.53zm-391.05-443.7 161.57 161.57h-161.57zm198.59 443.7h-694.91v-481.51h444.08v225.5c0 14.43 11.695 26.125 26.125 26.125h224.71z"
     id="path2"
     style="fill:#125e6b;fill-opacity:1" />
</svg>
