<?xml version="1.0" encoding="UTF-8" standalone="no"?>
<svg
   xml:space="preserve"
   style="shape-rendering:geometricPrecision;text-rendering:geometricPrecision;image-rendering:optimizeQuality;"
   viewBox="0 0 173.397 173.397"
   x="0px"
   y="0px"
   fill-rule="evenodd"
   clip-rule="evenodd"
   version="1.1"
   id="svg28"
   sodipodi:docname="edit.svg"
   inkscape:version="1.1.2 (0a00cf5339, 2022-02-04)"
   xmlns:inkscape="http://www.inkscape.org/namespaces/inkscape"
   xmlns:sodipodi="http://sodipodi.sourceforge.net/DTD/sodipodi-0.dtd"
   xmlns="http://www.w3.org/2000/svg"
   xmlns:svg="http://www.w3.org/2000/svg"><sodipodi:namedview
     id="namedview30"
     pagecolor="#ffffff"
     bordercolor="#666666"
     borderopacity="1.0"
     inkscape:pageshadow="2"
     inkscape:pageopacity="0.0"
     inkscape:pagecheckerboard="0"
     showgrid="false"
     inkscape:zoom="4.8674428"
     inkscape:cx="86.595778"
     inkscape:cy="86.698502"
     inkscape:window-width="1920"
     inkscape:window-height="1043"
     inkscape:window-x="1920"
     inkscape:window-y="0"
     inkscape:window-maximized="1"
     inkscape:current-layer="svg28" /><defs
     id="defs4"><style
       type="text/css"
       id="style2">
   
    .fil1 {fill:none}
    .fil0 {fill:black}
   
  </style></defs><g
     id="g24"
     style="fill:#ffffff"><g
       id="g22"
       style="fill:#ffffff"><path
         class="fil0"
         d="M94.6468 100.085c-0.4285,0 -0.8568,-0.1626 -1.1804,-0.4892l-19.1231 -19.1223c-0.6509,-0.6525 -0.6513,-1.7104 -0.0002,-2.3632 0.6511,-0.653 1.7093,-0.6528 2.3638,0l19.1235 19.1223c0.6509,0.6524 0.6508,1.7108 -0.0001,2.3632 -0.3266,0.3263 -0.7554,0.4895 -1.1835,0.4892zm28.7218 62.6128l-95.4744 0c-9.7789,0 -17.7342,-7.9548 -17.7342,-17.7358l0 -95.4733c0,-9.7794 7.955,-17.7353 17.7342,-17.7353l93.4966 -0.0002c0.9266,0 1.671,0.7482 1.671,1.6712 0.0006,0.9227 -0.745,1.6714 -1.671,1.6714l-93.4966 -0.0002c-7.9342,0 -14.3922,6.4569 -14.3922,14.3934l0.0003 95.4729c0,7.9358 6.4577,14.394 14.3919,14.394l95.4744 -0.0001c7.9374,0 14.3917,-6.4579 14.3917,-14.3938l0.0002 -91.3335c0,-0.9224 0.7483,-1.6705 1.6709,-1.6705 0.9227,-0.0003 1.6711,0.7482 1.6711,1.6707l0.0004 91.3332c0,9.7809 -7.9554,17.7361 -17.7343,17.7359z"
         id="path6"
         style="fill:#ffffff" /><path
         class="fil0"
         d="M123.369 150.635l-95.4744 0c-3.1262,0 -5.6713,-2.5447 -5.6713,-5.6731l0.0001 -95.4729c0,-3.1282 2.5449,-5.673 5.6712,-5.673l81.4374 -0.0002c0.9228,0 1.6708,0.7484 1.6708,1.6713 0.0001,0.9227 -0.7487,1.671 -1.6713,1.671l-81.4369 -0.0003c-1.2847,0 -2.3291,1.0462 -2.3291,2.3315l0.0003 95.4725c0,1.2855 1.0441,2.3313 2.3288,2.3313l95.4744 -0.0001c1.2847,0 2.3321,-1.0454 2.3321,-2.3311l0.0007 -79.2709c0,-0.9227 0.7444,-1.6706 1.6669,-1.6706 0.9266,-0.0001 1.671,0.748 1.671,1.671l0.0006 79.2704c0,3.1282 -2.5453,5.6734 -5.6713,5.6732z"
         id="path8"
         style="fill:#ffffff" /><path
         class="fil0"
         d="M75.5238 80.9631c-0.4246,0 -0.8535,-0.163 -1.1807,-0.4896 -0.6507,-0.6525 -0.6511,-1.7104 0,-2.3632l11.4749 -11.4752c0.6549,-0.6529 1.7126,-0.6527 2.3636,0.0002 0.6515,0.6527 0.6511,1.7107 0,2.3632l-11.4743 11.475c-0.3274,0.3263 -0.7558,0.4898 -1.1835,0.4896zm19.123 19.1219c-0.4285,0 -0.8568,-0.1626 -1.1804,-0.4892 -0.6541,-0.6525 -0.6544,-1.7108 0,-2.3631l11.4747 -11.4754c0.6517,-0.6529 1.7094,-0.6525 2.3639,0.0002 0.6511,0.6527 0.651,1.7108 0,2.3633l-11.4746 11.475c-0.3267,0.3263 -0.7555,0.4895 -1.1836,0.4892z"
         id="path10"
         style="fill:#ffffff" /><path
         class="fil0"
         d="M89.3625 67.8167l16.7591 16.759 46.261 -46.2591 -16.7598 -16.7586 -46.2603 46.2587zm16.7591 20.7934c-0.4417,0 -0.8673,-0.1756 -1.1805,-0.4893l-19.1231 -19.1225c-0.6509,-0.6525 -0.6514,-1.7102 -0.0003,-2.363l48.6216 -48.6223c0.6548,-0.6529 1.7125,-0.6525 2.3636,0.0002l19.1234 19.1218c0.3134,0.3133 0.4873,0.7387 0.4873,1.1818 0.0007,0.4432 -0.174,0.8683 -0.4875,1.1816l-48.6209 48.6223c-0.3133,0.3137 -0.7383,0.4895 -1.1836,0.4894z"
         id="path12"
         style="fill:#ffffff" /><path
         class="fil0"
         d="M154.747 39.9886c-0.4284,0 -0.857,-0.1629 -1.1843,-0.4892 -0.651,-0.6525 -0.651,-1.7107 0,-2.3631l4.8291 -4.8293c0.9713,-0.969 1.5037,-2.264 1.5037,-3.6473 0.0003,-1.3828 -0.5328,-2.6782 -1.5041,-3.6471l-9.4621 -9.4646c-2.0123,-2.0105 -5.2852,-2.0111 -7.2939,0.0002l-4.8287 4.8289c-0.6541,0.6525 -1.7129,0.6528 -2.3639,0 -0.6542,-0.6525 -0.6545,-1.7104 0,-2.3631l4.829 -4.8293c3.3142,-3.3142 8.7068,-3.3137 12.0211,0.0002l9.4629 9.4642c1.6011,1.6 2.4817,3.7348 2.4817,6.0106 0.0006,2.2757 -0.8808,4.4107 -2.4823,6.0107l-4.8286 4.829c-0.3273,0.3263 -0.752,0.4895 -1.1796,0.4892z"
         id="path14"
         style="fill:#ffffff" /><path
         class="fil0"
         d="M148.801 45.9324c-0.4285,0 -0.8572,-0.1629 -1.181,-0.4892l-19.1226 -19.1223c-0.6549,-0.6528 -0.6554,-1.7108 -0.0007,-2.3631 0.6516,-0.6531 1.7094,-0.6528 2.3637,0l19.1202 19.1221c0.6549,0.6525 0.6543,1.7106 -0.0002,2.3633 -0.3232,0.3263 -0.7519,0.4895 -1.1794,0.4892z"
         id="path16"
         style="fill:#ffffff" /><path
         class="fil0"
         d="M67.4157 108.196c-0.4387,0 -0.864,-0.1716 -1.1843,-0.4897 -0.4279,-0.4311 -0.5919,-1.0633 -0.4212,-1.6489l3.9867 -13.6856 4.1288 -13.5666c0.268,-0.8828 1.2007,-1.3806 2.085,-1.1117 0.8846,0.2685 1.3821,1.2024 1.114,2.0853l-4.1248 13.5471 -3.1301 10.7428 10.7643 -3.1344 13.5255 -4.1187c0.8843,-0.2695 1.8169,0.2293 2.0849,1.1121 0.2721,0.8827 -0.2262,1.8166 -1.1105,2.0853l-13.5458 4.1243 -13.7065 3.9917c-0.1527,0.0451 -0.3099,0.0671 -0.466,0.067z"
         id="path18"
         style="fill:#ffffff" /><path
         class="fil0"
         d="M78.0131 105.109c-0.4285,0 -0.8571,-0.1628 -1.1843,-0.4893l-7.2825 -7.2832c-0.6509,-0.6529 -0.6516,-1.7107 -0.0005,-2.3631 0.6545,-0.653 1.7128,-0.6528 2.3638,0l7.2832 7.2828c0.6549,0.6529 0.6544,1.7111 -0.0001,2.3635 -0.3266,0.3263 -0.7521,0.4895 -1.1796,0.4893z"
         id="path20"
         style="fill:#ffffff" /></g></g><rect
     class="fil1"
     width="173.397"
     height="173.397"
     id="rect26" /></svg>
