<?xml version="1.0" encoding="UTF-8" standalone="no"?>
<svg
   viewBox="0 0 48 48"
   version="1.1"
   x="0px"
   y="0px"
   id="svg42"
   sodipodi:docname="profile.svg"
   inkscape:version="1.1.2 (0a00cf5339, 2022-02-04)"
   xmlns:inkscape="http://www.inkscape.org/namespaces/inkscape"
   xmlns:sodipodi="http://sodipodi.sourceforge.net/DTD/sodipodi-0.dtd"
   xmlns="http://www.w3.org/2000/svg"
   xmlns:svg="http://www.w3.org/2000/svg">
  <defs
     id="defs46" />
  <sodipodi:namedview
     id="namedview44"
     pagecolor="#ffffff"
     bordercolor="#666666"
     borderopacity="1.0"
     inkscape:pageshadow="2"
     inkscape:pageopacity="0.0"
     inkscape:pagecheckerboard="0"
     showgrid="false"
     inkscape:zoom="17.583333"
     inkscape:cx="23.971564"
     inkscape:cy="24.028436"
     inkscape:window-width="1920"
     inkscape:window-height="1016"
     inkscape:window-x="0"
     inkscape:window-y="27"
     inkscape:window-maximized="1"
     inkscape:current-layer="svg42" />
  <g
     style=""
     display="none"
     id="g32">
    <rect
       style="color:#000000;clip-rule:nonzero;display:inline;overflow:visible;visibility:visible;opacity:1;isolation:auto;mix-blend-mode:normal;color-interpolation:sRGB;color-interpolation-filters:linearRGB;solid-color:#000000;solid-opacity:1;fill:#ffffff;fill-opacity:1;fill-rule:nonzero;stroke:none;stroke-width:0.5;stroke-linecap:round;stroke-linejoin:round;stroke-miterlimit:4;stroke-dasharray:none;stroke-dashoffset:0;stroke-opacity:1;color-rendering:auto;image-rendering:auto;shape-rendering:auto;text-rendering:auto;enable-background:accumulate"
       width="48"
       height="48"
       x="0"
       y="0"
       id="rect2" />
    <rect
       y="0"
       x="-46.987076"
       height="48"
       width="48"
       style="color:#000000;clip-rule:nonzero;display:inline;overflow:visible;visibility:visible;opacity:1;isolation:auto;mix-blend-mode:normal;color-interpolation:sRGB;color-interpolation-filters:linearRGB;solid-color:#000000;solid-opacity:1;fill:#ffffff;fill-opacity:1;fill-rule:nonzero;stroke:none;stroke-width:0.5;stroke-linecap:round;stroke-linejoin:round;stroke-miterlimit:4;stroke-dasharray:none;stroke-dashoffset:0;stroke-opacity:1;color-rendering:auto;image-rendering:auto;shape-rendering:auto;text-rendering:auto;enable-background:accumulate"
       id="rect4" />
    <rect
       style="color:#000000;clip-rule:nonzero;display:inline;overflow:visible;visibility:visible;opacity:1;isolation:auto;mix-blend-mode:normal;color-interpolation:sRGB;color-interpolation-filters:linearRGB;solid-color:#000000;solid-opacity:1;fill:#ffffff;fill-opacity:1;fill-rule:nonzero;stroke:none;stroke-width:0.5;stroke-linecap:round;stroke-linejoin:round;stroke-miterlimit:4;stroke-dasharray:none;stroke-dashoffset:0;stroke-opacity:1;color-rendering:auto;image-rendering:auto;shape-rendering:auto;text-rendering:auto;enable-background:accumulate"
       width="48"
       height="48"
       x="-102.98708"
       y="0"
       id="rect6" />
    <rect
       y="57.591999"
       x="0"
       height="48"
       width="48"
       style="color:#000000;clip-rule:nonzero;display:inline;overflow:visible;visibility:visible;opacity:1;isolation:auto;mix-blend-mode:normal;color-interpolation:sRGB;color-interpolation-filters:linearRGB;solid-color:#000000;solid-opacity:1;fill:#ffffff;fill-opacity:1;fill-rule:nonzero;stroke:none;stroke-width:0.5;stroke-linecap:round;stroke-linejoin:round;stroke-miterlimit:4;stroke-dasharray:none;stroke-dashoffset:0;stroke-opacity:1;color-rendering:auto;image-rendering:auto;shape-rendering:auto;text-rendering:auto;enable-background:accumulate"
       id="rect8" />
    <rect
       style="color:#000000;clip-rule:nonzero;display:inline;overflow:visible;visibility:visible;opacity:1;isolation:auto;mix-blend-mode:normal;color-interpolation:sRGB;color-interpolation-filters:linearRGB;solid-color:#000000;solid-opacity:1;fill:#ffffff;fill-opacity:1;fill-rule:nonzero;stroke:none;stroke-width:0.5;stroke-linecap:round;stroke-linejoin:round;stroke-miterlimit:4;stroke-dasharray:none;stroke-dashoffset:0;stroke-opacity:1;color-rendering:auto;image-rendering:auto;shape-rendering:auto;text-rendering:auto;enable-background:accumulate"
       width="48"
       height="48"
       x="-46.987076"
       y="57.591999"
       id="rect10" />
    <rect
       y="57.591999"
       x="-102.98708"
       height="48"
       width="48"
       style="color:#000000;clip-rule:nonzero;display:inline;overflow:visible;visibility:visible;opacity:1;isolation:auto;mix-blend-mode:normal;color-interpolation:sRGB;color-interpolation-filters:linearRGB;solid-color:#000000;solid-opacity:1;fill:#ffffff;fill-opacity:1;fill-rule:nonzero;stroke:none;stroke-width:0.5;stroke-linecap:round;stroke-linejoin:round;stroke-miterlimit:4;stroke-dasharray:none;stroke-dashoffset:0;stroke-opacity:1;color-rendering:auto;image-rendering:auto;shape-rendering:auto;text-rendering:auto;enable-background:accumulate"
       id="rect12" />
    <rect
       style="color:#000000;clip-rule:nonzero;display:inline;overflow:visible;visibility:visible;opacity:1;isolation:auto;mix-blend-mode:normal;color-interpolation:sRGB;color-interpolation-filters:linearRGB;solid-color:#000000;solid-opacity:1;fill:#ffffff;fill-opacity:1;fill-rule:nonzero;stroke:none;stroke-width:0.5;stroke-linecap:round;stroke-linejoin:round;stroke-miterlimit:4;stroke-dasharray:none;stroke-dashoffset:0;stroke-opacity:1;color-rendering:auto;image-rendering:auto;shape-rendering:auto;text-rendering:auto;enable-background:accumulate"
       width="48"
       height="48"
       x="0"
       y="117.592"
       id="rect14" />
    <rect
       y="117.592"
       x="-46.987076"
       height="48"
       width="48"
       style="color:#000000;clip-rule:nonzero;display:inline;overflow:visible;visibility:visible;opacity:1;isolation:auto;mix-blend-mode:normal;color-interpolation:sRGB;color-interpolation-filters:linearRGB;solid-color:#000000;solid-opacity:1;fill:#ffffff;fill-opacity:1;fill-rule:nonzero;stroke:none;stroke-width:0.5;stroke-linecap:round;stroke-linejoin:round;stroke-miterlimit:4;stroke-dasharray:none;stroke-dashoffset:0;stroke-opacity:1;color-rendering:auto;image-rendering:auto;shape-rendering:auto;text-rendering:auto;enable-background:accumulate"
       id="rect16" />
    <rect
       style="color:#000000;clip-rule:nonzero;display:inline;overflow:visible;visibility:visible;opacity:1;isolation:auto;mix-blend-mode:normal;color-interpolation:sRGB;color-interpolation-filters:linearRGB;solid-color:#000000;solid-opacity:1;fill:#ffffff;fill-opacity:1;fill-rule:nonzero;stroke:none;stroke-width:0.5;stroke-linecap:round;stroke-linejoin:round;stroke-miterlimit:4;stroke-dasharray:none;stroke-dashoffset:0;stroke-opacity:1;color-rendering:auto;image-rendering:auto;shape-rendering:auto;text-rendering:auto;enable-background:accumulate"
       width="48"
       height="48"
       x="-102.98708"
       y="117.592"
       id="rect18" />
    <rect
       y="173.592"
       x="0"
       height="48"
       width="48"
       style="color:#000000;clip-rule:nonzero;display:inline;overflow:visible;visibility:visible;opacity:1;isolation:auto;mix-blend-mode:normal;color-interpolation:sRGB;color-interpolation-filters:linearRGB;solid-color:#000000;solid-opacity:1;fill:#ffffff;fill-opacity:1;fill-rule:nonzero;stroke:none;stroke-width:0.5;stroke-linecap:round;stroke-linejoin:round;stroke-miterlimit:4;stroke-dasharray:none;stroke-dashoffset:0;stroke-opacity:1;color-rendering:auto;image-rendering:auto;shape-rendering:auto;text-rendering:auto;enable-background:accumulate"
       id="rect20" />
    <rect
       style="color:#000000;clip-rule:nonzero;display:inline;overflow:visible;visibility:visible;opacity:1;isolation:auto;mix-blend-mode:normal;color-interpolation:sRGB;color-interpolation-filters:linearRGB;solid-color:#000000;solid-opacity:1;fill:#ffffff;fill-opacity:1;fill-rule:nonzero;stroke:none;stroke-width:0.5;stroke-linecap:round;stroke-linejoin:round;stroke-miterlimit:4;stroke-dasharray:none;stroke-dashoffset:0;stroke-opacity:1;color-rendering:auto;image-rendering:auto;shape-rendering:auto;text-rendering:auto;enable-background:accumulate"
       width="48"
       height="48"
       x="-46.987076"
       y="173.592"
       id="rect22" />
    <rect
       y="173.592"
       x="-102.98708"
       height="48"
       width="48"
       style="color:#000000;clip-rule:nonzero;display:inline;overflow:visible;visibility:visible;opacity:1;isolation:auto;mix-blend-mode:normal;color-interpolation:sRGB;color-interpolation-filters:linearRGB;solid-color:#000000;solid-opacity:1;fill:#ffffff;fill-opacity:1;fill-rule:nonzero;stroke:none;stroke-width:0.5;stroke-linecap:round;stroke-linejoin:round;stroke-miterlimit:4;stroke-dasharray:none;stroke-dashoffset:0;stroke-opacity:1;color-rendering:auto;image-rendering:auto;shape-rendering:auto;text-rendering:auto;enable-background:accumulate"
       id="rect24" />
    <rect
       style="color:#000000;clip-rule:nonzero;display:inline;overflow:visible;visibility:visible;opacity:1;isolation:auto;mix-blend-mode:normal;color-interpolation:sRGB;color-interpolation-filters:linearRGB;solid-color:#000000;solid-opacity:1;fill:#ffffff;fill-opacity:1;fill-rule:nonzero;stroke:none;stroke-width:0.5;stroke-linecap:round;stroke-linejoin:round;stroke-miterlimit:4;stroke-dasharray:none;stroke-dashoffset:0;stroke-opacity:1;color-rendering:auto;image-rendering:auto;shape-rendering:auto;text-rendering:auto;enable-background:accumulate"
       width="48"
       height="48"
       x="0"
       y="231.592"
       id="rect26" />
    <rect
       y="231.592"
       x="-46.987076"
       height="48"
       width="48"
       style="color:#000000;clip-rule:nonzero;display:inline;overflow:visible;visibility:visible;opacity:1;isolation:auto;mix-blend-mode:normal;color-interpolation:sRGB;color-interpolation-filters:linearRGB;solid-color:#000000;solid-opacity:1;fill:#ffffff;fill-opacity:1;fill-rule:nonzero;stroke:none;stroke-width:0.5;stroke-linecap:round;stroke-linejoin:round;stroke-miterlimit:4;stroke-dasharray:none;stroke-dashoffset:0;stroke-opacity:1;color-rendering:auto;image-rendering:auto;shape-rendering:auto;text-rendering:auto;enable-background:accumulate"
       id="rect28" />
    <rect
       style="color:#000000;clip-rule:nonzero;display:inline;overflow:visible;visibility:visible;opacity:1;isolation:auto;mix-blend-mode:normal;color-interpolation:sRGB;color-interpolation-filters:linearRGB;solid-color:#000000;solid-opacity:1;fill:#ffffff;fill-opacity:1;fill-rule:nonzero;stroke:none;stroke-width:0.5;stroke-linecap:round;stroke-linejoin:round;stroke-miterlimit:4;stroke-dasharray:none;stroke-dashoffset:0;stroke-opacity:1;color-rendering:auto;image-rendering:auto;shape-rendering:auto;text-rendering:auto;enable-background:accumulate"
       width="48"
       height="48"
       x="-102.98708"
       y="231.592"
       id="rect30" />
  </g>
  <g
     transform="translate(0,-1004.3622)"
     style="fill:#155e6a;fill-opacity:1"
     display="inline"
     id="g40">
    <g
       style="fill:#155e6a;fill-opacity:1"
       transform="matrix(1.3629582,0,0,1.3629582,-10.755138,-374.21082)"
       display="inline"
       fill="#000000"
       fill-opacity="1"
       id="g38">
      <path
         style="color:#000000;font-style:normal;font-variant:normal;font-weight:normal;font-stretch:normal;font-size:medium;line-height:normal;font-family:sans-serif;text-indent:0;text-align:start;text-decoration:none;text-decoration-line:none;text-decoration-style:solid;text-decoration-color:#000000;letter-spacing:normal;word-spacing:normal;text-transform:none;direction:ltr;block-progression:tb;writing-mode:lr-tb;baseline-shift:baseline;text-anchor:start;white-space:normal;clip-rule:nonzero;display:inline;overflow:visible;visibility:visible;opacity:1;isolation:auto;mix-blend-mode:normal;color-interpolation:sRGB;color-interpolation-filters:linearRGB;solid-color:#000000;solid-opacity:1;fill:#155e6a;fill-opacity:1;fill-rule:nonzero;stroke:none;stroke-width:0.99999982;stroke-linecap:round;stroke-linejoin:round;stroke-miterlimit:4;stroke-dasharray:none;stroke-dashoffset:0;stroke-opacity:1;color-rendering:auto;image-rendering:auto;shape-rendering:auto;text-rendering:auto;enable-background:accumulate"
         d="m 24.001953,10.091797 c -1.27569,0 -2.416293,0.315869 -3.228515,1.167969 -0.961325,0.1483 -1.614672,1.142703 -1.734376,2.158203 -0.13144,1.1149 -0.08776,2.171922 0.113282,3.544922 -0.06476,0.2654 -0.109043,0.540018 -0.109375,0.824218 8.69e-4,0.9509 0.408931,1.787272 1.09375,2.263672 0.727119,2.0874 2.177509,3.53711 3.902343,3.53711 1.725534,0 3.178222,-1.450516 3.904297,-3.541016 0.683383,-0.4765 1.092902,-1.309566 1.09375,-2.259766 -5.18e-4,-0.2786 -0.04509,-0.547993 -0.107421,-0.808593 C 28.966667,16.746416 29,16.512431 29,16.269531 l 0,-1.935547 c 0,-2.0312 -1.99168,-4.242187 -4.464844,-4.242187 z m 0.0293,3.689453 c 0.697548,0 2.563894,0.02323 3.214844,0.673828 0.105669,0.1017 0.167969,0.242056 0.167968,0.410156 l -0.01562,1.171875 c -0.0021,0.1344 0.05003,0.263875 0.144531,0.359375 0.277407,0.2792 0.490575,0.811425 0.492187,1.390625 -6.86e-4,0.7682 -0.37447,1.401525 -0.740234,1.578125 -0.121674,0.058 -0.214648,0.163116 -0.257813,0.291016 -0.628006,1.8798 -1.824333,2.931794 -3,2.933594 -1.175831,0 -2.37393,-1.053847 -3.001953,-2.935547 -0.04271,-0.1275 -0.134926,-0.232316 -0.255859,-0.291016 -0.364664,-0.1776 -0.736826,-0.808918 -0.738281,-1.574219 0.0012,-0.5818 0.215256,-1.117684 0.49414,-1.396484 0.09719,-0.097 0.150165,-0.229887 0.146485,-0.367187 l -0.03516,-1.158203 c 0,-0.168001 0.06397,-0.315975 0.169922,-0.421876 0.653784,-0.6538 2.64042,-0.659962 3.214844,-0.664062 z m 3.273438,9.880859 c -0.05159,-2e-4 -0.10127,0.01869 -0.138672,0.05469 0,0 -1.380741,1.275391 -3.167969,1.275391 -1.787229,0 -3.166018,-1.275391 -3.166016,-1.275391 -0.09769,-0.09 -0.256624,-0.06236 -0.316406,0.05664 -0.261515,0.5242 -0.455248,0.8756 -0.689453,1.125 -0.234204,0.249299 -0.514898,0.413806 -1.00586,0.566406 -1.113392,0.3461 -3.451111,0.785612 -4.380859,3.320312 -0.788897,2.1509 -0.884754,4.746178 -1.095703,7.580078 -0.006,0.091 0.0502,0.174525 0.136719,0.203125 0,0 4.034603,1.339844 10.519531,1.339844 2.238036,0 4.15912,-0.16404 5.748047,-0.373047 C 29.492341,36.95929 29.34376,36.327444 29.34375,35.658203 29.343728,33.092203 31.433936,31 34,31 c 0.0401,0 0.07733,0.0107 0.117188,0.01172 -0.137346,-0.778843 -0.304277,-1.533177 -0.558594,-2.226563 -0.929749,-2.5347 -3.267469,-2.974212 -4.38086,-3.320312 -0.490994,-0.1526 -0.773137,-0.317107 -1.007812,-0.566406 -0.234674,-0.2494 -0.427982,-0.6009 -0.689453,-1.125 -0.03314,-0.067 -0.100963,-0.110029 -0.175781,-0.111329 z"
         transform="translate(0,1004.3622)"
         id="path34" />
      <path
         style="color:#000000;font-style:normal;font-variant:normal;font-weight:normal;font-stretch:normal;font-size:medium;line-height:normal;font-family:sans-serif;text-indent:0;text-align:start;text-decoration:none;text-decoration-line:none;text-decoration-style:solid;text-decoration-color:#000000;letter-spacing:normal;word-spacing:normal;text-transform:none;direction:ltr;block-progression:tb;writing-mode:lr-tb;baseline-shift:baseline;text-anchor:start;white-space:normal;clip-rule:nonzero;display:inline;overflow:visible;visibility:visible;opacity:1;isolation:auto;mix-blend-mode:normal;color-interpolation:sRGB;color-interpolation-filters:linearRGB;solid-color:#000000;solid-opacity:1;fill:#155e6a;fill-opacity:1;fill-rule:nonzero;stroke:none;stroke-width:0.99999994;stroke-linecap:butt;stroke-linejoin:round;stroke-miterlimit:4;stroke-dasharray:none;stroke-dashoffset:0;stroke-opacity:1;color-rendering:auto;image-rendering:auto;shape-rendering:auto;text-rendering:auto;enable-background:accumulate"
         d="m 34,32 c -2.013764,0 -3.65625,1.644503 -3.65625,3.658203 0,2.0138 1.642486,3.65625 3.65625,3.65625 2.013764,0 3.65625,-1.64245 3.65625,-3.65625 C 37.65625,33.644503 36.013764,32 34,32 Z m 0,1 c 1.473324,0 2.65625,1.184903 2.65625,2.658203 0,1.4734 -1.182926,2.65625 -2.65625,2.65625 -1.473324,0 -2.65625,-1.18285 -2.65625,-2.65625 C 31.34375,34.184903 32.526676,33 34,33 Z m 0,0.568359 c -0.112448,0 -0.222518,0.04595 -0.308594,0.123047 l -0.0059,0.0098 -0.0078,0 c -0.07823,0.086 -0.126953,0.196647 -0.126953,0.310547 0,0.117 0.0497,0.231853 0.132813,0.314453 0.08288,0.082 0.197723,0.130859 0.314453,0.130859 l 0,-0.002 c 0.116728,0 0.23157,-0.04796 0.314453,-0.130859 l 0.0039,0 c 0.08177,-0.084 0.132813,-0.1964 0.132813,-0.3125 0,-0.1179 -0.05246,-0.233807 -0.136719,-0.316407 -0.0834,-0.082 -0.197007,-0.126953 -0.3125,-0.126953 z m 0.01172,1.427735 c -0.113673,0 -0.229644,0.03494 -0.306641,0.11914 -0.077,0.084 -0.103516,0.1954 -0.103516,0.3125 l 0,1.917969 c 0,0.1158 0.0401,0.235341 0.134766,0.306641 0.07679,0.061 0.17542,0.09375 0.275391,0.09375 l -0.002,-0.0039 c 0.0959,0 0.188941,-0.0367 0.263672,-0.0957 l 0.0039,0 0.002,0 c 0.08705,-0.073 0.125,-0.188081 0.125,-0.300781 l 0,-1.929687 c 0,-0.1059 -0.02944,-0.210863 -0.09961,-0.289063 -0.07017,-0.078 -0.172126,-0.118459 -0.277344,-0.130859 l -0.0078,0 -0.0078,0 z"
         transform="translate(0,1004.3622)"
         id="path36" />
    </g>
  </g>
</svg>
