<?xml version="1.0" encoding="UTF-8" standalone="no"?>
<svg
   width="1200pt"
   height="1200pt"
   version="1.1"
   viewBox="0 0 1200 1200"
   id="svg4"
   sodipodi:docname="login.svg"
   inkscape:version="1.1.2 (0a00cf5339, 2022-02-04)"
   xmlns:inkscape="http://www.inkscape.org/namespaces/inkscape"
   xmlns:sodipodi="http://sodipodi.sourceforge.net/DTD/sodipodi-0.dtd"
   xmlns="http://www.w3.org/2000/svg"
   xmlns:svg="http://www.w3.org/2000/svg">
  <defs
     id="defs8" />
  <sodipodi:namedview
     id="namedview6"
     pagecolor="#ffffff"
     bordercolor="#666666"
     borderopacity="1.0"
     inkscape:pageshadow="2"
     inkscape:pageopacity="0.0"
     inkscape:pagecheckerboard="0"
     inkscape:document-units="pt"
     showgrid="false"
     inkscape:zoom="0.5275"
     inkscape:cx="800.94787"
     inkscape:cy="800"
     inkscape:window-width="1920"
     inkscape:window-height="1043"
     inkscape:window-x="1920"
     inkscape:window-y="0"
     inkscape:window-maximized="1"
     inkscape:current-layer="svg4" />
  <path
     d="m791.48 813.75h-344.3c-74.766 0-74.766 113.91 0 113.91h344.3c75 0 75-113.91 0-113.91zm0 76.406h-344.3c-25.078 0-25.312-38.438 0-38.438h344.3c25.312 0 25.312 38.438 0 38.438zm-67.734 60h-208.83c-75 0-75 113.91 0 113.91h208.83c75 0 75-113.91 0-113.91zm0 76.172h-208.83c-25.312 0-25.312-38.438 0-38.438h208.83c25.312 0 25.312 38.438 0 38.438zm362.11-953.44h-971.72c-62.812 0-114.14 51.328-114.14 114.38v825.7c0 62.812 51.328 114.14 114.14 114.14h971.72c63.047 0 114.14-51.094 114.14-114.14v-825.7c0-63.047-51.328-114.38-114.14-114.38zm76.406 940.08c0 41.953-34.219 76.406-76.406 76.406h-971.72c-42.188 0-76.406-34.219-76.406-76.406v-769.92h1124.5zm0-807.89h-1124.5v-18.047c0-41.953 34.219-76.406 76.406-76.406h971.72c42.188 0 76.406 34.219 76.406 76.406zm-562.27 580.55c142.03 0 257.34-115.55 257.34-257.58 0.23438-142.03-115.31-257.34-257.34-257.34s-257.58 115.55-257.58 257.34c0 142.03 115.55 257.58 257.58 257.58zm111.33-68.203c-68.672 40.547-154.22 40.078-222.89 0v-76.641c0-34.453 28.125-62.578 62.578-62.578h97.734c34.453 0 62.578 28.125 62.578 62.578zm-166.41-236.48c0-29.062 23.672-52.5 52.734-52.5s52.5 23.672 52.5 52.5c0 29.062-23.438 52.734-52.5 52.734s-52.734-23.672-52.734-52.734zm55.078-172.5c121.17 0 219.61 98.672 219.61 219.61 0.23438 63.516-26.953 120.94-70.312 161.25v-48.516c0-49.922-36.797-91.406-84.609-99.141 14.531-15.938 23.203-37.266 23.203-60.469 0-49.922-40.547-90.234-90.234-90.234-49.922 0-90.469 40.547-90.469 90.234 0 23.672 9.1406 45.234 23.906 61.172-45.938 9.1406-80.391 49.922-80.391 98.438v48.281c-43.359-40.078-70.547-97.5-70.547-161.02 0-121.17 98.672-219.61 219.84-219.61zm-410.39-131.48h-19.922c-25.078 0-24.844-37.969 0-37.969h19.922c25.078 0 24.844 37.969 0 37.969zm169.92 0h-19.922c-25.078 0-24.844-37.969 0-37.969h19.922c25.078 0 24.844 37.969 0 37.969zm-85.078 0h-19.922c-24.844 0-24.844-37.969 0-37.969h19.922c25.078 0 24.844 37.969 0 37.969z"
     id="path2"
     style="fill:#125e6b;fill-opacity:1" />
</svg>
