<?xml version="1.0" encoding="UTF-8" standalone="no"?>
<svg
   viewBox="0 0 8.4666665 8.4666669"
   version="1.1"
   x="0px"
   y="0px"
   id="svg6"
   sodipodi:docname="logout.svg"
   inkscape:version="1.1.2 (0a00cf5339, 2022-02-04)"
   xmlns:inkscape="http://www.inkscape.org/namespaces/inkscape"
   xmlns:sodipodi="http://sodipodi.sourceforge.net/DTD/sodipodi-0.dtd"
   xmlns="http://www.w3.org/2000/svg"
   xmlns:svg="http://www.w3.org/2000/svg">
  <defs
     id="defs10" />
  <sodipodi:namedview
     id="namedview8"
     pagecolor="#ffffff"
     bordercolor="#666666"
     borderopacity="1.0"
     inkscape:pageshadow="2"
     inkscape:pageopacity="0.0"
     inkscape:pagecheckerboard="0"
     showgrid="false"
     inkscape:zoom="99.685033"
     inkscape:cx="1.3191549"
     inkscape:cy="4.2333336"
     inkscape:window-width="1920"
     inkscape:window-height="1043"
     inkscape:window-x="1920"
     inkscape:window-y="0"
     inkscape:window-maximized="1"
     inkscape:current-layer="svg6" />
  <g
     transform="translate(0,-288.53333)"
     id="g4"
     style="fill:#125e6b;fill-opacity:1">
    <path
       style="color:#000000;font-style:normal;font-variant:normal;font-weight:normal;font-stretch:normal;font-size:medium;line-height:normal;font-family:sans-serif;font-variant-ligatures:normal;font-variant-position:normal;font-variant-caps:normal;font-variant-numeric:normal;font-variant-alternates:normal;font-feature-settings:normal;text-indent:0;text-align:start;text-decoration:none;text-decoration-line:none;text-decoration-style:solid;text-decoration-color:#000000;letter-spacing:normal;word-spacing:normal;text-transform:none;writing-mode:lr-tb;direction:ltr;text-orientation:mixed;dominant-baseline:auto;baseline-shift:baseline;text-anchor:start;white-space:normal;shape-padding:0;clip-rule:nonzero;display:inline;overflow:visible;visibility:visible;opacity:1;isolation:auto;mix-blend-mode:normal;color-interpolation:sRGB;color-interpolation-filters:linearRGB;solid-color:#000000;solid-opacity:1;vector-effect:none;fill:#125e6b;fill-opacity:1;fill-rule:nonzero;stroke:none;stroke-width:1.99999988;stroke-linecap:round;stroke-linejoin:round;stroke-miterlimit:4;stroke-dasharray:none;stroke-dashoffset:0;stroke-opacity:1;color-rendering:auto;image-rendering:auto;shape-rendering:auto;text-rendering:auto;enable-background:accumulate"
       d="M 4.234375 1.0078125 C 2.5621681 0.88711727 1.0039062 2.2251119 1.0039062 3.9921875 L 1.0039062 6.0019531 C 1.0328392 7.3060315 2.9749728 7.3060315 3.0039062 6.0019531 L 3.0039062 3.9921875 C 3.0039062 3.2786505 3.6406425 2.822699 4.3183594 3.0488281 L 10.3125 5.0488281 C 10.728177 5.1875368 11.005859 5.5690082 11.005859 6.0019531 L 11.005859 7.9941406 C 10.89374 9.4313189 13.112119 9.4313189 13 7.9941406 L 13 6.0019531 C 13 4.7104886 12.167363 3.5593988 10.947266 3.1523438 L 4.953125 1.1503906 C 4.7137692 1.0705245 4.4732617 1.0250547 4.234375 1.0078125 z M 20.236328 7.0214844 C 19.696245 6.9910072 19.155672 7.1116948 18.675781 7.3515625 C 17.716 7.8314491 16.992187 8.788358 16.992188 9.9941406 L 16.992188 10.998047 L 12.003906 10.998047 C 10.358624 10.998047 8.9980469 12.35079 8.9980469 13.996094 L 8.9980469 17.988281 C 8.9980469 19.633547 10.358624 20.994141 12.003906 20.994141 L 16.992188 20.994141 L 16.992188 21.990234 C 16.992188 24.401762 19.869533 25.843476 21.798828 24.396484 L 29.800781 18.394531 C 30.578543 17.811199 31.023868 16.885628 30.996094 15.914062 C 30.970053 15.003121 30.532693 14.146557 29.800781 13.597656 L 21.798828 7.5957031 C 21.316512 7.2339645 20.776411 7.0519615 20.236328 7.0214844 z M 20.050781 8.9707031 C 20.235129 8.9908285 20.424952 9.0633381 20.603516 9.1972656 L 28.605469 15.199219 C 28.84825 15.381392 28.987332 15.660164 28.996094 15.966797 C 29.005354 16.29108 28.86458 16.598625 28.605469 16.792969 L 20.603516 22.794922 C 19.889255 23.330632 18.994141 22.882921 18.994141 21.990234 L 18.994141 19.990234 A 1.0001001 1.0001001 0 0 0 17.996094 18.992188 L 12.003906 18.992188 C 11.439375 18.992188 10.998047 18.552791 10.998047 17.988281 L 10.998047 13.996094 C 10.998047 13.431546 11.439375 13 12.003906 13 L 17.996094 13 A 1.0001001 1.0001001 0 0 0 18.994141 11.994141 L 18.994141 9.9941406 C 18.994141 9.3245123 19.497737 8.9103269 20.050781 8.9707031 z M 1.9863281 8.9824219 C 1.4332532 8.9920906 0.99307427 9.4488997 1.0039062 10.001953 L 1.0039062 28 C 1.0039062 29.678299 2.4086618 31.051814 4.09375 30.996094 C 4.3837767 30.986494 4.6731278 30.935154 4.953125 30.841797 L 10.947266 28.839844 C 12.165966 28.433204 13 27.289549 13 25.998047 L 13 23.998047 C 13.112119 22.560869 10.89374 22.560869 11.005859 23.998047 L 11.005859 25.998047 C 11.005859 26.430992 10.729468 26.804235 10.3125 26.943359 L 4.3183594 28.943359 C 4.228743 28.973596 4.1344576 28.99118 4.03125 28.996094 C 3.4568569 29.014991 3.0039063 28.578494 3.0039062 28 L 3.0039062 10.001953 C 3.0138886 9.4358769 2.5524043 8.9743925 1.9863281 8.984375 L 1.9863281 8.9824219 z "
       transform="matrix(0.26458333,0,0,0.26458333,0,288.53333)"
       id="path2" />
  </g>
</svg>
