<?xml version="1.0" encoding="UTF-8" standalone="no"?>
<svg
   version="1.1"
   x="0px"
   y="0px"
   viewBox="0 0 100 100"
   enable-background="new 0 0 100 100"
   xml:space="preserve"
   id="svg6"
   sodipodi:docname="origine.svg"
   inkscape:version="1.1.2 (0a00cf5339, 2022-02-04)"
   xmlns:inkscape="http://www.inkscape.org/namespaces/inkscape"
   xmlns:sodipodi="http://sodipodi.sourceforge.net/DTD/sodipodi-0.dtd"
   xmlns="http://www.w3.org/2000/svg"
   xmlns:svg="http://www.w3.org/2000/svg"><defs
     id="defs10" /><sodipodi:namedview
     id="namedview8"
     pagecolor="#ffffff"
     bordercolor="#666666"
     borderopacity="1.0"
     inkscape:pageshadow="2"
     inkscape:pageopacity="0.0"
     inkscape:pagecheckerboard="0"
     showgrid="false"
     inkscape:zoom="8.44"
     inkscape:cx="49.940758"
     inkscape:cy="50.059242"
     inkscape:window-width="1920"
     inkscape:window-height="1016"
     inkscape:window-x="0"
     inkscape:window-y="27"
     inkscape:window-maximized="1"
     inkscape:current-layer="svg6" /><g
     id="g4"
     style="fill:#ffffff;fill-opacity:1"><path
       d="M18.406,15.633c-6.496,0-11.783,5.229-11.783,11.751v27.774c0,6.494,5.287,11.751,11.783,11.751h0.928v6.747   c0,0.871,0.281,1.687,0.984,2.08c0.675,0.394,1.547,0.253,2.277-0.196l14.117-8.631h11.586v1.35c0,5.088,4.105,9.165,9.195,9.165   h12.57l10.771,6.605c0.591,0.366,1.321,0.479,1.94,0.113c0.591-0.338,0.844-1.013,0.844-1.715v-5.004h0.534   c5.09,0,9.224-4.077,9.224-9.165V47.006c0-5.06-4.134-9.165-9.224-9.165h-4.668V27.384c0-6.522-5.259-11.751-11.783-11.751H18.406z    M18.406,17.208h49.296c5.652,0,10.208,4.526,10.208,10.177v10.458H57.494c-5.09,0-9.195,4.104-9.195,9.165v18.3H36.516   c-0.168,0-0.309,0.057-0.422,0.141L21.78,74.19c-0.422,0.253-0.618,0.197-0.675,0.141c-0.057-0.028-0.197-0.169-0.197-0.675v-7.563   c0-0.394-0.365-0.787-0.787-0.787h-1.715c-5.652,0-10.208-4.498-10.208-10.148V27.384C8.198,21.734,12.754,17.208,18.406,17.208   L18.406,17.208z M40.284,24.46c-4.358-0.028-8.746,2.839-9.478,8.012c-0.111,0.45,0.226,0.928,0.647,0.984   c0.421,0.084,0.872-0.281,0.899-0.731c0.646-4.414,4.246-6.691,7.931-6.691c2.812,0.028,4.949,0.872,6.327,2.249   c1.35,1.406,1.969,3.289,1.688,5.566c-0.395,2.896-2.447,4.863-4.584,6.916c-2.166,2.08-4.443,4.301-4.387,7.675   c0.027,0.394,0.394,0.787,0.815,0.759c0.422,0,0.787-0.394,0.787-0.787c-0.056-2.643,1.743-4.442,3.881-6.494   c2.138-2.052,4.612-4.301,5.062-7.843c0.338-2.699-0.422-5.145-2.137-6.859C46.049,25.473,43.434,24.46,40.284,24.46L40.284,24.46z    M57.494,39.416h26.659c4.246,0,7.649,3.374,7.649,7.59v21.252c0,4.217-3.403,7.59-7.649,7.59h-1.321   c-0.422,0-0.788,0.366-0.788,0.787v5.792c0,0.337-0.084,0.365-0.056,0.365c0.027-0.028-0.028,0.056-0.31-0.112l-10.995-6.719   c-0.113-0.057-0.254-0.113-0.395-0.113H57.494c-4.246,0-7.621-3.373-7.621-7.59V47.006C49.873,42.79,53.248,39.416,57.494,39.416   L57.494,39.416z M69.952,46.782c-0.028,0.028-0.057,0.028-0.085,0.028c-0.365,0.084-0.618,0.45-0.618,0.787v14.927   c0,0.395,0.365,0.788,0.787,0.788s0.815-0.394,0.788-0.788V47.597C70.852,47.147,70.402,46.753,69.952,46.782L69.952,46.782z    M39.918,52.882c-0.984,0-1.799,0.814-1.799,1.799s0.814,1.771,1.799,1.771c0.957,0,1.744-0.787,1.744-1.771   S40.875,52.882,39.918,52.882L39.918,52.882z M70.036,65.785c-0.984,0-1.771,0.815-1.771,1.771c0,0.984,0.787,1.8,1.771,1.8   s1.771-0.815,1.771-1.8C71.808,66.601,71.021,65.785,70.036,65.785L70.036,65.785z"
       id="path2"
       style="fill:#ffffff;fill-opacity:1" /></g></svg>
