<?xml version="1.0" encoding="UTF-8" standalone="no"?>
<!-- Created with Inkscape (http://www.inkscape.org/) -->

<svg
   width="77.402504mm"
   height="75.326828mm"
   viewBox="0 0 77.402504 75.326828"
   version="1.1"
   id="svg5"
   inkscape:version="1.1.2 (0a00cf5339, 2022-02-04)"
   sodipodi:docname="pansebete.svg"
   xmlns:inkscape="http://www.inkscape.org/namespaces/inkscape"
   xmlns:sodipodi="http://sodipodi.sourceforge.net/DTD/sodipodi-0.dtd"
   xmlns="http://www.w3.org/2000/svg"
   xmlns:svg="http://www.w3.org/2000/svg">
  <sodipodi:namedview
     id="namedview7"
     pagecolor="#ffffff"
     bordercolor="#666666"
     borderopacity="1.0"
     inkscape:pageshadow="2"
     inkscape:pageopacity="0.0"
     inkscape:pagecheckerboard="0"
     inkscape:document-units="mm"
     showgrid="false"
     fit-margin-top="1"
     fit-margin-left="1"
     fit-margin-right="1"
     fit-margin-bottom="1"
     lock-margins="true"
     inkscape:zoom="1.2423029"
     inkscape:cx="33.405701"
     inkscape:cy="245.91426"
     inkscape:window-width="1920"
     inkscape:window-height="1016"
     inkscape:window-x="0"
     inkscape:window-y="27"
     inkscape:window-maximized="1"
     inkscape:current-layer="layer1" />
  <defs
     id="defs2" />
  <g
     inkscape:label="Calque 1"
     inkscape:groupmode="layer"
     id="layer1"
     transform="translate(-40.564193,-37.681412)">
    <g
       id="g3931"
       transform="translate(47.273485,-7.3328089)">
      <path
         style="fill:#155e6a;stroke:none;stroke-width:0.999998"
         d="m 49.627223,46.529729 c -1.26568,0.16443 -3.26915,1.59157 -3.75175,2.794 -0.49877,1.24297 -0.21903,3.36677 0.46542,4.48734 0.55482,0.90822 2.50799,1.6648 2.2252,2.87866 -0.15985,0.68606 -0.67978,1.31623 -0.97832,1.94734 -0.66158,1.39894 -1.23723,2.82871 -1.88891,4.23333 -0.35213,0.75878 -1.03869,1.59978 -0.89764,2.45533 h -0.0847 l -0.0847,-0.16933 c -0.99035,0.88604 -1.34586,2.5588 -2.70933,3.05054 -0.39997,0.14427 -0.77945,-0.005 -1.18534,0.025 -0.76301,0.0566 -1.7929,0.18059 -2.54,0.0241 -0.87841,-0.1839 -1.63508,-0.59656 -2.54,-0.70477 -1.62103,-0.19389 -3.06078,-0.0672 -4.65666,0.061 -0.615276,0.0494 -1.256116,-0.0862 -1.862666,0.0573 -0.47879,0.11319 -0.88621,0.42172 -1.35467,0.56091 -0.30581,0.0909 -0.62433,-0.0119 -0.93133,0.0732 -0.86445,0.23953 -2.16163,0.88943 -2.9028,1.41309 -1.95741,1.38303 -3.21022,3.73253 -3.63864,6.02293 -0.16399,0.87673 -0.52925,1.86783 0.2761,2.54 0,-0.23859 0.22386,-0.087 0.0847,0 v 0.0847 c 1.29489,0 2.81263,0.20066 4.064,-0.16933 l -0.0847,-0.254 1.0193,0.1568 1.01601,-0.31488 2.36736,-0.0941 1.10067,-0.46905 1.693326,-0.0276 1.60867,-0.54821 1.35467,-0.0138 1.94733,-0.55186 -0.0847,-0.16933 c 2.2943,0.33731 5.05917,-1.10533 7.366,-0.16138 1.42918,0.58479 2.51494,2.23842 3.63737,3.25814 0.85462,0.77648 1.78723,1.60317 2.58868,2.42554 0.18068,0.18533 0.51156,0.89484 0.85048,0.72813 0.2689,-0.13225 0.24494,-0.74642 0.29929,-1.0011 0.22242,-1.04292 0.54119,-1.99483 0.69292,-3.048 0.28524,-1.97934 1.10193,-3.81296 1.53974,-5.75733 0.21438,-0.95183 0.497,-1.85556 0.72941,-2.794 0.12276,-0.49564 0.11328,-1.08086 0.41436,-1.51486 0.58487,-0.84328 1.67741,-0.14512 2.23647,0.37228 1.21403,1.12378 3.02683,2.73253 4.70662,3.06637 0.59825,0.11896 0.92599,-0.24502 1.43933,-0.44052 1.68766,-0.64253 2.86097,-1.82448 2.48793,-3.68461 -0.21201,-1.05714 -0.81941,-2.02421 -1.14199,-3.048 -0.30175,-0.95758 -0.78748,-1.8017 -1.12581,-2.71263 -0.18525,-0.49877 0.017,-1.14867 -0.72813,-1.18203 l -0.0847,-0.42334 c 0.35899,-0.0602 0.0192,-0.86089 -0.13089,-1.06578 -0.46872,-0.63949 -0.5627,-1.79798 -0.85378,-2.57488 -0.13123,-0.35027 -0.48184,-0.54229 -0.5323,-0.93134 -0.1839,-1.41884 1.0508,-2.57786 1.32063,-3.97933 0.30844,-1.60215 -1.03226,-2.66874 -1.99365,-3.64615 -0.63686,-0.64751 -1.29438,-1.47093 -2.21267,-1.74037 -0.77741,-0.22809 -0.14589,0.59374 0.0847,0.80315 0.87292,0.79285 1.8205,1.65046 2.00652,2.89004 0.2142,1.42744 -1.54077,2.61978 -2.51452,3.302 -2.33333,1.63483 -5.89432,1.86978 -8.382,0.4637 -0.90542,-0.51174 -1.83244,-1.17341 -2.15316,-2.2417 -0.28693,-0.95619 0.17052,-2.3752 0.88469,-3.03624 0.52129,-0.48242 1.66801,-0.84364 1.52247,-1.7051 m -26.161906,31.5807 v 0.0847 l -0.33867,0.0847 v -0.0847 z"
         id="path908" />
      <path
         style="fill:#d8de22;stroke-width:0.999998"
         d="m 27.751532,112.04303 c -0.0842,-0.45845 -0.32402,-2.18187 -0.39766,-2.8575 -0.0381,-0.34925 -0.096,-2.44897 -0.12871,-4.66605 -0.0587,-3.97791 -0.057,-4.0439 0.13379,-5.005347 0.27354,-1.378836 0.25838,-1.431086 -0.8706,-2.999946 -0.42301,-0.58783 -0.71051,-1.08421 -0.801,-1.38296 -0.34876,-1.15145 -0.0219,-2.36405 0.92546,-3.43358 0.98519,-1.11221 1.66777,-1.55376 3.48491,-2.25432 0.38013,-0.14655 1.15696,-0.44962 1.72629,-0.67349 0.74116,-0.29143 1.2461,-0.43289 1.778,-0.49809 0.78396,-0.0961 1.20367,-0.18724 1.75886,-0.38195 0.30614,-0.10736 1.95885,-0.35381 4.36034,-0.6502 1.26001,-0.15551 8.98908,-0.15365 9.99067,0.002 2.628989,0.40962 5.074239,1.34846 6.196889,2.37927 0.88578,0.81332 1.28431,1.40012 1.50949,2.22261 0.27116,0.99041 0.27264,2.11335 0.004,2.86366 -0.42361,1.18215 -0.63771,1.50125 -1.7271,2.57408 -1.28343,1.26392 -1.47425,1.60346 -1.58243,2.815713 -0.0409,0.45826 -0.13346,2.0905 -0.2057,3.6272 -0.0722,1.5367 -0.18967,3.31685 -0.26098,3.9559 -0.0713,0.63904 -0.16547,1.74394 -0.20926,2.45533 -0.0438,0.71139 -0.0806,1.30521 -0.0818,1.3196 -10e-4,0.0144 -0.0403,0.003 -0.0869,-0.0262 -0.0466,-0.0288 -0.0847,-0.19638 -0.0847,-0.37245 0,-0.17607 -0.0764,-0.61884 -0.16977,-0.98393 -0.21373,-0.83566 -0.3347,-2.78807 -0.40909,-6.60228 -0.055,-2.82007 -0.0602,-2.88513 -0.25358,-3.19623 -0.25914,-0.416797 -0.49273,-0.571437 -0.86316,-0.571437 -0.484679,0 -1.436229,0.698667 -1.729679,1.269997 -0.14282,0.27807 -0.24229,1.36802 -0.25885,2.83633 -0.0297,2.6307 -0.45123,8.23754 -0.63536,8.45045 -0.0884,0.10225 -0.23499,-0.7756 -0.33652,-2.01578 -0.0496,-0.60537 -0.13184,-1.51977 -0.18284,-2.032 -0.051,-0.51224 -0.10598,-2.08533 -0.12219,-3.49578 -0.0326,-2.8381 -0.0471,-2.92122 -0.59171,-3.39942 -0.15654,-0.13744 -0.42854,-0.28986 -0.60443,-0.33871 -0.53013,-0.14722 -1.86843,-0.10583 -2.81402,0.087 -0.79344,0.16183 -1.07919,0.17373 -3.37729,0.14067 -1.75316,-0.0252 -2.76593,-0.0775 -3.35718,-0.17329 -2.86091,-0.46353 -3.38532,-0.48128 -3.89534,-0.13181 -0.5612,0.38455 -0.62804,0.62375 -0.67362,2.41087 -0.0224,0.87915 -0.0975,2.24044 -0.16687,3.0251 -0.0694,0.78466 -0.16909,2.25151 -0.22163,3.25967 -0.0525,1.00815 -0.12564,1.92826 -0.16244,2.04468 l -0.0669,0.21166 -0.10097,-0.254 c -0.25226,-0.63457 -0.39831,-3.42636 -0.53442,-10.21593 -0.0193,-0.96422 -0.0259,-0.99485 -0.28184,-1.31233 -0.67601,-0.838574 -1.7831,-1.004184 -2.37975,-0.355987 -0.44643,0.484997 -0.47052,0.660287 -0.53929,3.925587 -0.0353,1.6764 -0.10669,3.63855 -0.15861,4.36033 -0.0519,0.72178 -0.13256,1.84573 -0.17919,2.49767 -0.098,1.36999 -0.15989,1.82033 -0.25018,1.82033 -0.0354,0 -0.0872,-0.12382 -0.11495,-0.27517 z M 66.856881,90.388717 c -0.0931,-0.0428 -0.53376,-0.23069 -0.97917,-0.41748 -0.44541,-0.18678 -1.07227,-0.51198 -1.39303,-0.72265 -0.32076,-0.21068 -0.61165,-0.38304 -0.64643,-0.38304 -0.11355,0 -0.95445,-0.53491 -2.11402,-1.34474 -0.79037,-0.55199 -1.21425,-0.90869 -1.38908,-1.16893 -0.13838,-0.20599 -0.44267,-0.53913 -0.6762,-0.74031 -0.23353,-0.20118 -0.65263,-0.68088 -0.93134,-1.066 -0.76146,-1.05222 -0.89283,-1.19372 -1.26523,-1.36288 -0.4581,-0.20809 -0.83356,-0.19829 -1.5802,0.0413 -0.85964,0.27579 -1.25642,0.32983 -1.3143,0.179 -0.0252,-0.0657 0.0376,-0.36987 0.13942,-0.67602 0.23134,-0.69516 0.41351,-0.83364 0.99517,-0.75648 0.96564,0.1281 1.79874,-0.68127 1.79874,-1.74749 0,-0.5096 0.14124,-0.58596 1.08555,-0.58691 1.31737,-0.001 1.88727,-0.36116 2.30631,-1.456181 0.10076,-0.26329 0.26463,-0.55516 0.36417,-0.64859 0.53966,-0.50659 1.90804,-0.39605 2.87581,0.23232 0.64891,0.42133 0.90303,0.51861 1.35476,0.51861 0.45791,0 0.90882,-0.24296 1.51095,-0.81415 0.2643,-0.25071 0.52688,-0.45585 0.58352,-0.45585 0.26385,0 2.11093,1.29095 2.11093,1.47535 0,0.17689 -0.21106,0.22411 -1.32687,0.29683 -1.15232,0.0751 -1.40159,0.170811 -1.83212,0.703491 -0.42156,0.52158 -0.40991,0.97016 0.0615,2.36694 0.28856,0.855 0.43577,1.47751 0.56062,2.3706 0.22983,1.64415 0.34868,3.50271 0.31839,4.97879 l -0.0252,1.22767 -0.21166,0.0173 c -0.11642,0.01 -0.28787,-0.0177 -0.381,-0.0605 z"
         id="path3348" />
      <g
         id="g3923"
         transform="translate(-111.66777,22.492051)">
        <path
           style="fill:#f39a5d;stroke-width:0.999998"
           d="m 133.6981,94.479506 c -0.13529,-0.16302 -0.22472,-0.8942 -0.33646,-2.75089 -0.049,-0.81492 -0.14566,-1.86756 -0.2147,-2.3392 -0.069,-0.47164 -0.12553,-1.14272 -0.12553,-1.49128 0,-0.34856 -0.0377,-0.83233 -0.0837,-1.07504 -0.046,-0.24272 -0.12345,-0.86287 -0.17204,-1.37812 -0.0684,-0.72559 -0.12931,-0.99435 -0.27005,-1.19199 -0.14498,-0.20362 -0.19509,-0.4405 -0.24797,-1.1722 -0.0519,-0.71867 -0.12193,-1.05604 -0.32363,-1.55975 -0.14155,-0.35351 -0.28162,-0.80174 -0.31127,-0.99608 -0.0844,-0.55345 -0.0498,-0.50302 -1.37049,-1.99794 -0.60775,-0.68795 -1.04474,-1.12639 -2.07389,-2.08074 -0.45195,-0.4191 -0.89496,-0.88377 -0.98448,-1.03262 -0.0895,-0.14884 -0.31708,-0.34935 -0.50571,-0.44559 -0.18864,-0.0962 -0.40919,-0.27925 -0.49012,-0.40671 -0.0809,-0.12746 -0.63386,-0.7492 -1.22874,-1.38164 -0.59488,-0.63244 -1.23786,-1.37539 -1.42885,-1.651 -0.19099,-0.27561 -0.47101,-0.63445 -0.62226,-0.79744 -0.15126,-0.16298 -0.45758,-0.63923 -0.68071,-1.05833 -0.22313,-0.4191 -0.58422,-1.0287 -0.80241,-1.35467 -0.21819,-0.32596 -0.55885,-0.88866 -0.75702,-1.25043 -0.19817,-0.36178 -0.45206,-0.76682 -0.5642,-0.90009 -0.12272,-0.14585 -0.25282,-0.47384 -0.3268,-0.82389 -0.0676,-0.31987 -0.31831,-0.99836 -0.55714,-1.50774 -0.23882,-0.50939 -0.49313,-1.15709 -0.56513,-1.43934 -0.072,-0.28224 -0.20131,-0.65178 -0.28736,-0.82118 -0.12319,-0.24252 -0.1685,-0.5936 -0.21304,-1.651 -0.0903,-2.14451 -0.0753,-4.77853 0.0294,-5.13577 0.11565,-0.39487 -0.0477,-1.03385 -0.35578,-1.39167 -0.18879,-0.21927 -0.24399,-0.23406 -0.86496,-0.23172 -0.47227,0.002 -0.74474,0.0462 -0.94606,0.15426 -0.15551,0.0835 -0.66255,0.22539 -1.12675,0.31538 -0.46421,0.09 -0.94657,0.21575 -1.07192,0.27947 -0.28385,0.14431 -1.20611,0.30612 -1.75885,0.30858 -0.22901,0.001 -0.5781,0.0753 -0.77574,0.16498 -0.19765,0.0897 -0.57865,0.2018 -0.84667,0.24908 -0.633,0.11165 -4.0984,0.2837 -4.28352,0.21266 -0.33169,-0.12728 -0.22428,-0.71455 0.20017,-1.09444 0.10394,-0.093 0.25916,-0.33171 0.34495,-0.53041 0.0951,-0.22038 0.2644,-0.42526 0.43398,-0.52532 0.33738,-0.19905 1.18309,-1.13102 1.70888,-1.88317 0.2122,-0.30356 0.55668,-0.69193 0.7655,-0.86304 0.20881,-0.17111 0.59918,-0.54768 0.86746,-0.83682 0.60625,-0.65337 1.81822,-1.86457 2.26926,-2.26783 0.18627,-0.16653 0.66228,-0.63815 1.0578,-1.04802 0.39553,-0.40988 0.93855,-0.89424 1.20671,-1.07634 0.26817,-0.18211 0.54889,-0.42469 0.62383,-0.53906 0.0749,-0.11438 0.44147,-0.42722 0.81451,-0.69521 0.37303,-0.26799 0.9498,-0.68164 1.2817,-0.91922 0.70135,-0.50205 2.51918,-1.50509 2.88945,-1.59434 0.234,-0.0564 0.65384,-0.22578 1.91559,-0.77286 0.26194,-0.11357 0.59651,-0.20649 0.74349,-0.20649 0.29545,0 0.42589,0.18343 0.26677,0.37515 -0.16746,0.20178 -1.20007,0.78875 -1.85423,1.05401 -0.34194,0.13865 -0.77568,0.35959 -0.96386,0.49097 -0.18817,0.13138 -0.52645,0.35317 -0.75172,0.49287 -1.19681,0.74218 -1.99664,1.69139 -1.77468,2.10612 0.1626,0.30383 0.41476,0.40658 1.11564,0.45462 0.62764,0.043 1.176,-0.0647 1.176,-0.23104 0,-0.11705 0.52052,-0.7205 0.70528,-0.81764 0.10105,-0.0531 0.44462,-0.1369 0.76349,-0.18617 0.72509,-0.11204 0.98657,-0.27195 0.98657,-0.60338 0,-0.26093 0.25456,-0.51085 0.52034,-0.51085 0.0792,0 0.2517,-0.0892 0.38333,-0.19816 0.31062,-0.25719 1.32174,-0.81782 1.47513,-0.8179 0.0654,-4e-5 0.36651,-0.11765 0.6692,-0.26135 0.30268,-0.1437 0.82656,-0.31448 1.16417,-0.37951 0.33761,-0.065 0.80697,-0.2161 1.04303,-0.33572 0.54574,-0.27655 1.20661,-0.27249 1.24669,0.008 0.0333,0.23264 -0.15355,0.38706 -1.0029,0.82891 -0.39343,0.20467 -0.94393,0.51029 -1.22333,0.67916 -0.2794,0.16887 -0.65752,0.39288 -0.84026,0.49781 -0.18275,0.10493 -0.43692,0.29637 -0.56483,0.42542 -0.1279,0.12905 -0.3976,0.30765 -0.59933,0.39688 -0.20172,0.0892 -0.48095,0.28385 -0.62051,0.43248 -0.13955,0.14863 -0.44423,0.3963 -0.67707,0.55037 -0.23283,0.15407 -0.61383,0.43334 -0.84666,0.62059 -0.23284,0.18725 -0.68421,0.49825 -1.00305,0.69111 -0.31884,0.19286 -0.69418,0.45293 -0.83408,0.57793 l -0.25436,0.22728 0.10637,0.67436 c 0.0634,0.40217 0.18337,0.79397 0.29712,0.97069 0.10491,0.16298 0.21707,0.46778 0.24925,0.67733 0.0322,0.20955 0.16543,0.55245 0.29612,0.762 0.1307,0.20955 0.28114,0.6096 0.33432,0.889 0.10162,0.53387 0.57453,1.65754 0.90799,2.15749 0.10816,0.16215 0.19721,0.4098 0.1979,0.55033 10e-4,0.2949 0.0793,0.44415 0.56064,1.07537 0.19262,0.25258 0.46468,0.68579 0.60457,0.96269 0.1399,0.2769 0.3252,0.56324 0.41178,0.63631 0.17412,0.14693 1.3451,0.84081 1.41894,0.84081 0.0256,0 0.30471,0.12326 0.6202,0.27391 0.55393,0.26451 0.61721,0.27498 1.84362,0.30522 1.51665,0.0374 3.06322,-0.10461 3.61581,-0.33201 0.21917,-0.0902 0.69542,-0.18454 1.05834,-0.20967 0.62268,-0.0431 1.00258,-0.10076 2.73418,-0.41498 0.39582,-0.0718 0.9765,-0.13057 1.2904,-0.13053 0.73453,8e-5 2.96992,-0.22333 3.7896,-0.37874 0.34925,-0.0662 0.99695,-0.15961 1.43934,-0.20753 0.44238,-0.0479 1.12818,-0.18658 1.524,-0.30811 0.58198,-0.1787 0.99503,-0.23532 2.159,-0.29594 0.99254,-0.0517 1.63644,-0.12916 2.07433,-0.24959 0.5149,-0.14161 1.05761,-0.19026 2.86948,-0.25722 2.66233,-0.0984 3.26112,-0.0469 3.85835,0.33187 0.22953,0.14556 0.46114,0.26466 0.5147,0.26466 0.0536,0 0.36352,0.22346 0.6888,0.49659 0.32529,0.27312 0.84712,0.6508 1.15962,0.83927 0.40587,0.24479 0.99039,0.77646 2.04605,1.86106 0.81283,0.8351 1.58759,1.6671 1.72169,1.84889 0.1341,0.18179 0.49966,0.59144 0.81236,0.91033 0.57186,0.58321 0.84553,1.04146 0.75808,1.26937 -0.0266,0.0694 -0.20161,0.14136 -0.40133,0.16515 -0.19477,0.0232 -2.37344,0.0462 -4.84147,0.0511 -4.67748,0.009 -5.50945,0.0542 -7.19666,0.38823 -0.5588,0.11065 -1.2065,0.22567 -1.43934,0.25562 -1.08448,0.13949 -5.42635,1.04648 -6.39233,1.33532 -0.16298,0.0487 -0.59912,0.23497 -0.96919,0.41385 -0.37007,0.17889 -0.72238,0.32525 -0.78292,0.32525 -0.0605,0 -0.25305,0.12867 -0.42781,0.28594 -0.21456,0.19309 -0.44148,0.30566 -0.69875,0.34664 -0.20955,0.0334 -0.59055,0.19366 -0.84666,0.35617 -0.25612,0.16252 -0.76833,0.48761 -1.13825,0.72243 -0.36993,0.23482 -0.84618,0.48418 -1.05834,0.55412 -0.25285,0.0834 -0.49492,0.25177 -0.70263,0.48884 -0.17428,0.19891 -0.51718,0.47585 -0.762,0.61541 -0.6149,0.35054 -0.92286,0.70112 -1.36334,1.55202 -0.35971,0.69487 -0.38305,0.78381 -0.47776,1.82033 -0.0909,0.99474 -0.0842,1.17917 0.0767,2.11517 0.0969,0.56397 0.17627,1.30927 0.17627,1.65622 0,0.35893 0.073,0.90954 0.16938,1.27748 0.0932,0.35567 0.24491,1.13437 0.33722,1.73045 0.0923,0.59608 0.20513,1.27428 0.25071,1.50711 0.16758,0.85601 0.2768,4.78608 0.24002,8.636 -0.0355,3.71533 -0.0454,3.91416 -0.21441,4.318 -0.0974,0.23283 -0.20067,0.56498 -0.22938,0.73811 -0.0496,0.29894 -0.23168,0.57422 -0.37988,0.57422 -0.0375,0 -0.11598,-0.0575 -0.1743,-0.12778 z"
           id="path3734" />
        <path
           style="fill:#f2842c;stroke-width:0.999998"
           d="m 133.75423,94.038966 c -0.0577,-0.35338 -0.17731,-1.7549 -0.31635,-3.70735 -0.19846,-2.7869 -0.23732,-3.23676 -0.32181,-3.72534 -0.0483,-0.2794 -0.12517,-0.88076 -0.17079,-1.33635 -0.0607,-0.60624 -0.13406,-0.91109 -0.27361,-1.13689 -0.15227,-0.24639 -0.20279,-0.49214 -0.25084,-1.22025 -0.047,-0.71272 -0.10793,-1.01605 -0.279,-1.38972 -0.12036,-0.2629 -0.26121,-0.72132 -0.313,-1.0187 -0.0845,-0.48553 -0.15161,-0.6087 -0.65729,-1.20719 -1.38077,-1.63422 -1.81763,-2.11697 -2.00787,-2.21879 -0.11197,-0.0599 -0.39589,-0.31045 -0.63094,-0.55673 -0.23505,-0.24628 -0.58413,-0.58197 -0.77573,-0.74598 -0.29275,-0.25058 -0.33135,-0.31869 -0.24178,-0.42662 0.0881,-0.10621 0.0793,-0.13699 -0.0511,-0.17788 -0.319,-0.10002 -0.4123,-0.18632 -0.43849,-0.4056 -0.0265,-0.22155 -0.21036,-0.30388 -0.31188,-0.13963 -0.0963,0.15575 -0.19399,0.0874 -0.41561,-0.2908 -0.12102,-0.20651 -0.33152,-0.45485 -0.46778,-0.55187 -0.33655,-0.23964 -1.76251,-1.87936 -2.1587,-2.48228 -0.17659,-0.26874 -0.46924,-0.62901 -0.65032,-0.80061 -0.18109,-0.1716 -0.32925,-0.37162 -0.32925,-0.44449 0,-0.136 -0.58009,-1.13433 -1.00966,-1.73762 -0.13264,-0.18626 -0.45931,-0.71966 -0.72594,-1.18533 -0.26664,-0.46567 -0.56361,-0.93267 -0.65994,-1.03778 -0.16917,-0.18461 -0.16982,-0.19501 -0.0191,-0.30526 0.20269,-0.14821 0.11333,-0.42607 -0.11383,-0.35397 -0.13319,0.0423 -0.16763,-0.008 -0.2151,-0.31166 -0.0311,-0.1991 -0.16683,-0.59228 -0.30166,-0.87373 -0.35458,-0.74014 -0.67847,-1.62622 -0.77138,-2.11029 -0.0444,-0.23138 -0.17541,-0.55727 -0.2911,-0.72421 -0.19472,-0.28099 -0.21034,-0.37707 -0.21034,-1.29382 0,-0.55255 0.0347,-0.99028 0.0786,-0.99028 0.11379,0 0.20455,-0.8653 0.1376,-1.31181 -0.0373,-0.24895 -0.0995,-0.38152 -0.17903,-0.38152 -0.0969,0 -0.12181,-0.15554 -0.12181,-0.762 0,-0.61034 0.0245,-0.762 0.12316,-0.762 0.12773,0 0.16966,-0.17039 0.25307,-1.02817 0.061,-0.62704 -0.0201,-1.01511 -0.22309,-1.0682 -0.0879,-0.023 -0.21249,-0.16778 -0.27683,-0.32176 -0.24488,-0.58608 -1.20809,-0.73514 -2.24934,-0.34808 -0.30138,0.11203 -0.81467,0.24985 -1.14064,0.30625 -0.32596,0.0564 -0.76535,0.17326 -0.97641,0.25969 -0.21106,0.0864 -0.80161,0.20188 -1.31233,0.25657 -0.564,0.0604 -1.14052,0.18046 -1.46836,0.30579 -0.35732,0.1366 -0.79574,0.22253 -1.29704,0.25423 -0.70556,0.0446 -0.75543,0.0371 -0.73023,-0.10973 0.0204,-0.11886 -0.025,-0.15759 -0.18463,-0.15759 -0.15003,0 -0.2082,0.0434 -0.19978,0.14888 0.0149,0.18642 -0.0986,0.20918 -1.3423,0.26927 -0.91619,0.0443 -0.99833,0.0356 -1.07815,-0.11353 -0.0709,-0.13242 -0.0202,-0.24282 0.28164,-0.61403 0.20243,-0.24893 0.39277,-0.55627 0.42299,-0.68298 0.0302,-0.12672 0.14021,-0.27324 0.24444,-0.32561 0.29641,-0.14895 1.50316,-1.41536 1.9299,-2.02532 0.21349,-0.30516 0.57361,-0.68168 0.80651,-0.84323 0.23143,-0.16054 0.59125,-0.49943 0.7996,-0.75308 0.98347,-1.19731 1.40894,-1.65558 1.8576,-2.00082 0.26717,-0.20558 0.81857,-0.73634 1.22533,-1.17947 0.40677,-0.44314 0.94235,-0.94029 1.19017,-1.10479 0.24783,-0.1645 0.59695,-0.46472 0.77583,-0.66717 0.17887,-0.20244 0.42047,-0.4181 0.53689,-0.47925 0.11642,-0.0611 0.43629,-0.2863 0.71083,-0.50035 0.27454,-0.21405 0.71269,-0.53626 0.97367,-0.71603 0.59285,-0.40835 2.5769,-1.49347 2.73087,-1.49356 0.0629,-3e-5 0.35584,-0.11433 0.65107,-0.254 0.29522,-0.13966 0.5738,-0.25393 0.61907,-0.25393 0.0453,0 0.27997,-0.091 0.52157,-0.20212 0.51775,-0.23823 0.90492,-0.33882 0.90492,-0.2351 0,0.10107 -1.40117,0.8921 -1.82033,1.02766 -0.47186,0.15261 -0.81051,0.32808 -1.05834,0.54837 -0.11641,0.10348 -0.39168,0.29067 -0.61169,0.41598 -0.602,0.34287 -1.57562,1.21847 -1.76275,1.58529 -0.21398,0.41943 -0.20919,0.67627 0.018,0.96509 0.28993,0.36859 0.60027,0.44939 1.50096,0.39076 0.75745,-0.0493 0.80404,-0.0637 0.97367,-0.30056 0.50583,-0.70636 0.64852,-0.80201 1.40582,-0.94236 0.80149,-0.14854 1.07607,-0.32857 1.11725,-0.73254 0.0221,-0.21644 0.085,-0.27505 0.43967,-0.40916 0.22765,-0.0861 0.49435,-0.22862 0.59266,-0.31672 0.27294,-0.2446 1.07592,-0.6688 1.39245,-0.73561 0.1553,-0.0328 0.49254,-0.17016 0.74943,-0.30529 0.54569,-0.28705 0.70388,-0.3061 0.70388,-0.0848 0,0.11601 0.0886,0.18213 0.3175,0.2369 l 0.3175,0.076 -0.42334,0.24277 c -0.92506,0.53049 -1.17362,0.69453 -1.57626,1.04027 -0.23048,0.19791 -0.47349,0.35984 -0.54003,0.35984 -0.0665,0 -0.35984,0.21313 -0.65178,0.47363 -0.29195,0.2605 -0.63898,0.52957 -0.77118,0.59793 -0.27333,0.14134 -1.21522,0.8447 -1.28726,0.96126 -0.0262,0.0423 -0.27404,0.19768 -0.55083,0.34521 -0.72104,0.38431 -1.12943,0.8005 -1.06333,1.08365 0.0284,0.12173 0.0858,0.46306 0.12746,0.75852 0.0501,0.35529 0.13738,0.60275 0.25767,0.7308 0.10723,0.11414 0.23121,0.42938 0.30208,0.76812 0.0692,0.33058 0.19523,0.65437 0.29689,0.76259 0.10668,0.11356 0.22696,0.43502 0.30357,0.81135 0.0698,0.3428 0.23858,0.85488 0.37511,1.13796 0.13652,0.28308 0.24823,0.54107 0.24823,0.57332 0,0.0322 0.10011,0.2099 0.22247,0.3948 0.12236,0.18489 0.25426,0.50634 0.29311,0.71432 0.0467,0.24974 0.22418,0.58777 0.52279,0.9955 0.24867,0.33955 0.55727,0.83552 0.68577,1.10216 0.12851,0.26663 0.33607,0.55572 0.46125,0.64241 0.3572,0.24736 1.4418,0.81394 2.06548,1.07899 0.40774,0.17328 0.57486,0.29018 0.59267,0.41457 0.0237,0.16567 0.0877,0.17429 1.46412,0.19738 1.55252,0.026 1.82034,-0.002 1.82034,-0.19347 0,-0.13909 0.14328,-0.17856 0.92595,-0.25505 0.29973,-0.0293 0.66168,-0.11501 0.80433,-0.19046 0.16152,-0.0854 0.61078,-0.16203 1.19072,-0.20302 1.63141,-0.11529 2.38147,-0.21981 2.6763,-0.37291 0.21386,-0.11106 0.61077,-0.16609 1.55703,-0.21589 1.57557,-0.0829 1.85277,-0.11164 3.64067,-0.37746 1.77191,-0.26343 2.48837,-0.3987 3.09033,-0.58344 0.29139,-0.0894 0.98849,-0.17013 1.86267,-0.21563 0.9738,-0.0507 1.61501,-0.1298 2.11666,-0.26117 0.66556,-0.17429 0.917,-0.18903 3.34434,-0.19605 l 2.62466,-0.008 0.33828,0.21166 c 0.18605,0.11642 0.4718,0.27272 0.635,0.34734 0.1632,0.0746 0.48722,0.30646 0.72006,0.5152 0.43068,0.38611 1.16635,0.87906 1.58749,1.06374 0.12806,0.0562 0.23284,0.13825 0.23284,0.18244 0,0.0442 0.6477,0.72805 1.43933,1.51968 0.79163,0.79163 1.43933,1.47068 1.43933,1.509 0,0.0721 0.28942,0.39973 1.11505,1.26242 0.26876,0.28083 0.5042,0.61314 0.53493,0.75505 0.0522,0.24096 0.0483,0.24535 -0.0779,0.0891 -0.11634,-0.14402 -0.13277,-0.14664 -0.13277,-0.0212 0,0.0921 -0.068,0.1431 -0.1905,0.14296 -0.10478,-8e-5 -1.91288,0.009 -4.01802,0.0212 -3.68466,0.0206 -3.83193,0.0153 -3.94592,-0.14054 -0.0837,-0.1145 -0.16539,-0.14261 -0.27882,-0.096 -0.10584,0.0435 -0.12422,0.0794 -0.054,0.10565 0.27784,0.10373 -0.0602,0.19462 -0.72519,0.195 -0.40471,2.5e-4 -1.28828,0.0959 -1.9635,0.21264 -0.67522,0.11672 -1.58962,0.25257 -2.032,0.30189 -1.52656,0.17019 -4.45986,0.72502 -5.12233,0.96887 -0.18627,0.0686 -0.60912,0.18012 -0.93967,0.24789 -0.35731,0.0733 -0.98889,0.3136 -1.55769,0.59276 -0.52619,0.25824 -1.00733,0.46953 -1.06922,0.46953 -0.0619,0 -0.17102,0.0893 -0.24251,0.1984 -0.0885,0.13507 -0.28123,0.23467 -0.60387,0.31207 -0.26063,0.0625 -0.63164,0.21489 -0.82446,0.33859 -0.19282,0.1237 -0.47064,0.2976 -0.61737,0.38643 -0.14673,0.0888 -0.53326,0.3254 -0.85895,0.52572 -0.32569,0.20031 -0.72811,0.40174 -0.89427,0.44762 -0.1969,0.0544 -0.41177,0.21724 -0.61699,0.46769 -0.17319,0.21135 -0.48892,0.47351 -0.70161,0.58257 -0.52408,0.26871 -1.13331,0.91763 -1.39159,1.48224 -0.26184,0.57239 -0.43624,0.79707 -0.55955,0.72086 -0.15845,-0.0979 -0.34059,0.13111 -0.34059,0.4283 0,0.18031 0.0534,0.31163 0.14817,0.36471 0.13049,0.073 0.14852,0.23259 0.15111,1.3377 0.003,1.4044 0.20877,3.26217 0.50869,4.5991 0.10969,0.48895 0.23739,1.24005 0.28378,1.6691 0.0464,0.42906 0.1194,0.84816 0.16224,0.93133 0.10346,0.20087 0.25639,1.97006 0.30216,3.49557 0.0285,0.94843 0.0156,1.17471 -0.0563,0.99483 -0.0512,-0.12805 -0.12035,-0.23283 -0.15358,-0.23283 -0.0986,0 -0.18767,1.58566 -0.1328,2.36321 0.0385,0.54599 0.0943,0.77893 0.23077,0.96348 0.17704,0.23946 0.17902,0.28274 0.12184,2.67052 -0.0437,1.82382 -0.0894,2.51131 -0.18412,2.76579 -0.0693,0.18627 -0.17145,0.54537 -0.22699,0.79801 -0.12149,0.55258 -0.26589,0.63817 -0.33744,0.20001 z m 6.04051,-37.44702 c 0.1027,-0.0664 0.0906,-0.0823 -0.0635,-0.0834 -0.10477,-7.1e-4 -0.1905,0.0368 -0.1905,0.0834 0,0.10608 0.0898,0.10608 0.254,0 z m -32.86961,-2.13158 c 0.12686,-0.12686 -0.0194,-0.32375 -0.24042,-0.32375 -0.18549,0 -0.28091,0.13243 -0.21646,0.30039 0.0568,0.14804 0.3188,0.16144 0.45688,0.0234 z m 7.85061,-1.25508 c 0.0288,-0.0466 0.012,-0.0847 -0.0373,-0.0847 -0.0493,0 -0.0897,0.0381 -0.0897,0.0847 0,0.0466 0.0168,0.0847 0.0373,0.0847 0.0205,0 0.0609,-0.0381 0.0897,-0.0847 z m 8.93234,-9.10873 c 0,-0.14951 -0.18227,-0.12347 -0.2346,0.0335 -0.0184,0.0553 0.0268,0.10054 0.10054,0.10054 0.0737,0 0.13406,-0.0603 0.13406,-0.13406 z m 4.14866,-2.69801 c 0,-0.0646 -0.0199,-0.16935 -0.0443,-0.23282 -0.0296,-0.0771 0.12237,-0.19192 0.45718,-0.3456 0.86121,-0.3953 1.41883,-0.24479 0.61452,0.16587 -0.19862,0.10141 -0.44436,0.2376 -0.5461,0.30266 -0.31238,0.19975 -0.48132,0.23832 -0.48132,0.10989 z"
           id="path3732" />
        <path
           style="fill:#f37e1e;stroke-width:0.999998"
           d="m 133.84446,93.802946 c -0.0296,-0.23283 -0.0933,-1.09008 -0.14154,-1.905 -0.11334,-1.91566 -0.30988,-4.12659 -0.46663,-5.24933 -0.0683,-0.48895 -0.16248,-1.22449 -0.20938,-1.63454 -0.06,-0.52459 -0.13618,-0.81025 -0.25705,-0.96392 -0.12146,-0.15441 -0.17197,-0.34524 -0.17242,-0.65146 -9.9e-4,-0.67024 -0.15817,-1.48723 -0.38467,-1.99942 -0.11326,-0.25611 -0.25804,-0.71946 -0.32173,-1.02966 -0.11989,-0.58385 -0.26611,-0.80055 -1.30013,-1.92675 -0.19589,-0.21336 -0.51974,-0.58652 -0.71966,-0.82924 -0.19993,-0.24273 -0.51591,-0.55079 -0.70217,-0.68457 -0.18627,-0.13378 -0.43392,-0.3496 -0.55034,-0.47961 -0.11641,-0.13001 -0.37147,-0.38786 -0.56678,-0.57301 -0.24388,-0.23117 -0.36323,-0.42008 -0.381,-0.60305 -0.0212,-0.21829 -0.067,-0.27119 -0.25359,-0.29273 -0.17316,-0.02 -0.234,-0.0788 -0.254,-0.24546 -0.0346,-0.28808 -0.26759,-0.43835 -0.47697,-0.30759 -0.13287,0.083 -0.17654,0.0566 -0.30668,-0.18503 -0.0835,-0.15498 -0.2959,-0.39762 -0.47209,-0.53921 -0.42272,-0.33971 -1.73577,-1.86759 -2.14615,-2.49728 -0.17881,-0.27438 -0.47352,-0.64434 -0.65492,-0.82215 -0.1814,-0.17781 -0.32982,-0.38725 -0.32982,-0.46544 0,-0.17397 -0.36797,-0.78262 -1.02495,-1.6953 -0.27229,-0.37827 -0.53224,-0.78553 -0.57768,-0.90504 -0.0454,-0.11951 -0.23665,-0.47084 -0.42493,-0.78075 -0.24336,-0.40059 -0.32798,-0.62057 -0.29273,-0.76102 0.0704,-0.28055 -0.0351,-0.54844 -0.21599,-0.54844 -0.11075,0 -0.17074,-0.0881 -0.21289,-0.31282 -0.0323,-0.17206 -0.14617,-0.48638 -0.25308,-0.6985 -0.34615,-0.68675 -0.70933,-1.67005 -0.80201,-2.1714 -0.0498,-0.2692 -0.1639,-0.56808 -0.25365,-0.66419 -0.21848,-0.23399 -0.35454,-1.79972 -0.16649,-1.91594 0.0905,-0.0559 0.11807,-0.3128 0.11807,-1.09889 0,-0.87934 -0.0212,-1.04139 -0.14817,-1.13425 -0.19313,-0.14122 -0.21964,-1.14801 -0.0302,-1.14801 0.17602,0 0.22722,-0.20942 0.2806,-1.14764 0.0502,-0.88145 -0.0262,-1.22302 -0.27339,-1.22302 -0.0676,0 -0.17754,-0.13082 -0.24435,-0.29071 -0.17375,-0.41585 -0.55423,-0.59333 -1.2778,-0.59606 -0.4214,-0.002 -0.71501,0.0502 -1.016,0.17906 -0.62587,0.26803 -0.97367,0.32843 -0.97367,0.1691 0,-0.0708 -0.0384,-0.15249 -0.0854,-0.18153 -0.14738,-0.0911 -0.42258,0.0471 -0.42258,0.21214 0,0.0911 -0.0806,0.18109 -0.1905,0.21269 -0.10478,0.0301 -0.38864,0.13417 -0.63081,0.23122 -0.362,0.14506 -0.46347,0.15722 -0.5705,0.0684 -0.1074,-0.0891 -0.13936,-0.0841 -0.18258,0.0285 -0.0412,0.10741 -0.17743,0.13654 -0.63855,0.13654 -0.43892,0 -0.716,0.0547 -1.10304,0.21755 -0.59624,0.25095 -1.60664,0.37153 -1.79605,0.21433 -0.32647,-0.27094 -0.98397,-0.25019 -0.98397,0.0311 0,0.10191 -0.10744,0.12973 -0.50108,0.12973 -0.27559,0 -0.56134,0.0231 -0.635,0.0514 -0.10121,0.0388 -0.13392,-0.003 -0.13392,-0.17145 0,-0.17987 -0.049,-0.23264 -0.254,-0.27364 -0.29713,-0.0594 -0.31364,-0.11876 -0.0895,-0.32163 0.0905,-0.0819 0.18885,-0.25957 0.21855,-0.39482 0.0297,-0.13526 0.13665,-0.28836 0.23764,-0.34022 0.29149,-0.1497 1.85129,-1.79321 2.13095,-2.24533 0.16756,-0.2709 0.38365,-0.47999 0.635,-0.61443 0.22999,-0.12302 0.532,-0.40265 0.762,-0.70553 0.65843,-0.8671 1.43304,-1.74186 1.71664,-1.93859 0.15016,-0.10416 0.45815,-0.37934 0.68442,-0.61151 0.36883,-0.37845 0.42906,-0.41108 0.58222,-0.31543 0.14138,0.0883 0.19356,0.084 0.30262,-0.0251 0.11926,-0.11926 0.11817,-0.14682 -0.0115,-0.29011 -0.13667,-0.15102 -0.12007,-0.18049 0.35921,-0.63764 0.27637,-0.26361 0.52014,-0.4793 0.5417,-0.4793 0.0216,0 0.0339,0.0667 0.0275,0.14817 -0.0153,0.19331 0.23122,0.19331 0.26845,0 0.0157,-0.0815 -0.0132,-0.14817 -0.0642,-0.14817 -0.051,0 0.18096,-0.2667 0.51544,-0.59266 0.33448,-0.32597 0.63214,-0.59267 0.66147,-0.59267 0.0293,0 0.29941,-0.1909 0.60018,-0.42423 1.34586,-1.04406 2.77555,-1.8734 4.22986,-2.45367 0.67829,-0.27064 0.79014,-0.29685 0.74976,-0.17574 -0.0192,0.0576 -0.31602,0.21409 -0.65961,0.34777 -0.34359,0.13368 -0.74256,0.35493 -0.8866,0.49167 -0.14404,0.13674 -0.41429,0.32552 -0.60055,0.41951 -0.18627,0.094 -0.62845,0.42009 -0.98263,0.72465 -0.48488,0.41695 -0.69037,0.66165 -0.83188,0.9906 -0.22406,0.52082 -0.15882,0.77423 0.30389,1.1805 0.27083,0.23779 0.33221,0.25358 0.9844,0.25313 0.96035,-6.7e-4 1.28791,-0.10546 1.53384,-0.49082 0.35784,-0.5607 0.55443,-0.68229 1.31888,-0.81575 0.78618,-0.13724 1.13114,-0.37069 1.14895,-0.77751 0.008,-0.18616 0.0781,-0.24964 0.41675,-0.37819 0.22382,-0.085 0.48739,-0.22816 0.58571,-0.31823 0.24055,-0.22037 1.1404,-0.69036 1.32178,-0.69036 0.08,0 0.38293,-0.12244 0.67309,-0.27209 0.4813,-0.24822 0.53469,-0.25936 0.60877,-0.127 0.0447,0.0798 0.1342,0.14509 0.19899,0.14509 0.39442,0 0.10611,0.25039 -0.99394,0.86321 -0.14171,0.079 -0.37593,0.25572 -0.52047,0.39283 -0.14454,0.1371 -0.35227,0.27629 -0.46162,0.3093 -0.10935,0.033 -0.40882,0.2502 -0.66548,0.48263 -0.3368,0.30501 -0.49234,0.39693 -0.55895,0.33032 -0.24151,-0.24152 -0.69813,0.028 -0.48418,0.28579 0.0619,0.0745 -0.0246,0.18029 -0.31604,0.38661 -0.22066,0.15621 -0.47924,0.36557 -0.57461,0.46526 -0.0954,0.0997 -0.40887,0.30674 -0.69664,0.46012 -0.28777,0.15338 -0.66091,0.41259 -0.8292,0.57604 -0.26991,0.26213 -0.30036,0.33322 -0.25833,0.60303 0.0262,0.16822 0.0781,0.53764 0.11539,0.82092 0.0489,0.37161 0.13209,0.59154 0.2988,0.78966 0.13011,0.15464 0.23106,0.37722 0.23106,0.50948 0,0.31904 0.16032,0.77435 0.345,0.9798 0.0837,0.0931 0.21016,0.44759 0.28099,0.78768 0.12154,0.5836 0.79379,2.14358 0.9709,2.25305 0.0449,0.0278 0.1085,0.21222 0.14124,0.40988 0.0723,0.43634 0.12781,0.54542 0.63519,1.24764 0.21899,0.30309 0.47354,0.72254 0.56565,0.93209 0.18186,0.41373 0.62777,0.89723 0.90735,0.98388 0.0964,0.0299 0.27784,0.1265 0.40311,0.21471 0.12528,0.0882 0.56343,0.31042 0.97367,0.4938 0.47909,0.21415 0.73793,0.37591 0.72361,0.45221 -0.0566,0.30172 0.21442,0.35306 1.86363,0.35306 h 1.60368 l 0.18249,-0.22244 c 0.15755,-0.19205 0.26356,-0.2279 0.77583,-0.2624 0.33132,-0.0223 0.72361,-0.10731 0.88833,-0.19249 0.35743,-0.18484 1.42815,-0.28208 1.51732,-0.1378 0.0443,0.0717 0.13359,0.0614 0.33411,-0.0386 0.15049,-0.0751 0.58606,-0.15702 0.96793,-0.18211 0.39788,-0.0261 0.82082,-0.10788 0.99064,-0.19147 0.21434,-0.10551 0.61571,-0.16057 1.45067,-0.19899 0.63489,-0.0292 1.21747,-0.0773 1.29463,-0.10695 0.0772,-0.0296 0.13422,-0.0206 0.1268,0.02 -0.0433,0.23701 0.0286,0.28556 0.42297,0.28556 0.22903,0 0.47668,-0.0231 0.55033,-0.0514 0.15879,-0.0609 0.17999,-0.2838 0.0281,-0.29525 -0.20158,-0.0152 1.59104,-0.32938 2.39183,-0.41922 0.44238,-0.0496 1.20438,-0.20198 1.69333,-0.33855 0.72395,-0.20222 1.1641,-0.26378 2.37067,-0.3316 0.99894,-0.0561 1.68772,-0.13949 2.11412,-0.2558 0.5611,-0.15306 0.92004,-0.17482 3.18117,-0.19285 l 2.54872,-0.0203 0.33249,0.22436 c 0.18287,0.1234 0.42224,0.25107 0.53192,0.2837 0.10969,0.0326 0.43354,0.25599 0.71967,0.49634 0.58053,0.48763 1.58015,1.1546 1.73047,1.1546 0.0538,0 0.15263,0.10612 0.21971,0.23582 0.0671,0.12971 0.21092,0.28551 0.31967,0.34623 0.10875,0.0607 0.38822,0.33792 0.62106,0.616 0.23283,0.27807 0.70343,0.75781 1.04577,1.06608 0.34234,0.30827 0.70947,0.69647 0.81585,0.86268 0.10637,0.1662 0.50255,0.62321 0.88039,1.01556 0.37784,0.39236 0.68699,0.72574 0.68699,0.74084 0,0.0151 -0.0693,0.0967 -0.15393,0.18138 -0.14357,0.14357 -0.4079,0.15527 -3.92622,0.17383 -3.34426,0.0176 -3.77801,0.005 -3.82275,-0.1116 -0.076,-0.19815 -0.81989,-0.18393 -0.87241,0.0167 -0.0319,0.12169 -0.1463,0.15081 -0.64044,0.16299 -0.3309,0.008 -1.36716,0.13115 -2.30278,0.27332 -0.93563,0.14218 -2.04404,0.29969 -2.46314,0.35005 -0.4191,0.0503 -0.93345,0.1256 -1.143,0.16723 -1.30788,0.25982 -2.13768,0.43808 -2.58233,0.55473 -0.2794,0.0733 -0.8128,0.20868 -1.18533,0.30085 -0.37254,0.0922 -1.10638,0.37527 -1.63077,0.62912 -0.52439,0.25384 -1.0119,0.46154 -1.08335,0.46154 -0.0714,0 -0.22516,0.0953 -0.34158,0.21166 -0.11642,0.11642 -0.30519,0.21167 -0.41949,0.21167 -0.1143,0 -0.20781,0.0366 -0.20781,0.0814 0,0.0448 -0.16193,0.12437 -0.35984,0.1769 -0.19791,0.0525 -0.43603,0.16399 -0.52916,0.24771 -0.0931,0.0837 -0.32174,0.23475 -0.508,0.33563 -0.18627,0.10088 -0.52917,0.31566 -0.762,0.47727 -0.23284,0.16161 -0.64474,0.37508 -0.91534,0.47436 -0.3641,0.13359 -0.57172,0.27779 -0.79861,0.55468 -0.16864,0.2058 -0.48063,0.4634 -0.69333,0.57246 -0.53006,0.27178 -1.13748,0.92289 -1.38279,1.48225 -0.19935,0.45455 -0.3943,0.69646 -0.54019,0.67028 -0.19029,-0.0342 -0.27441,0.0268 -0.35471,0.25718 -0.10146,0.29106 0.0101,0.80822 0.19682,0.91274 0.0981,0.0549 0.10449,0.1753 0.0358,0.67115 -0.0563,0.40599 -0.0551,0.7807 0.004,1.14196 0.11402,0.70267 0.11162,0.74935 -0.0385,0.74935 -0.0699,0 -0.127,0.0542 -0.127,0.12055 0,0.26135 0.21019,1.02722 0.30385,1.10712 0.0546,0.0466 0.12137,0.33232 0.14842,0.635 0.0271,0.30268 0.12216,0.85513 0.21136,1.22767 0.23216,0.96966 0.35237,1.65676 0.35237,2.01421 0,0.17088 0.0534,0.45434 0.11862,0.62991 0.17471,0.47014 0.34161,2.65708 0.20903,2.73902 -0.14552,0.0899 -0.26387,1.96848 -0.22093,3.50686 0.0305,1.0913 0.0612,1.32015 0.21836,1.62646 0.23101,0.45019 0.27068,1.75074 0.0559,1.83316 -0.14726,0.0565 -0.1742,0.47738 -0.0306,0.47738 0.14989,0 0.0115,2.67271 -0.15506,2.99481 -0.0707,0.13663 -0.15576,0.42357 -0.18913,0.63764 l -0.0607,0.38921 -0.0539,-0.42333 z m 7.43195,-30.14017 c 0,-0.19872 -0.25089,-0.27128 -0.42845,-0.12392 -0.0964,0.08 -0.10181,0.1296 -0.0245,0.22274 0.14406,0.17359 0.45295,0.1062 0.45295,-0.0988 z m 17.78,-3.47365 c 0,-0.10995 -0.066,-0.17755 -0.1905,-0.19523 -0.1403,-0.0199 -0.1905,0.0154 -0.1905,0.13405 0,0.0886 0.0267,0.18783 0.0594,0.22048 0.11231,0.11232 0.32163,0.009 0.32163,-0.1593 z m -39.57804,-12.48912 c 0.089,-0.0476 0.20383,-0.1651 0.25518,-0.26104 0.21501,-0.40175 -0.55156,-0.68269 -1.00197,-0.36722 -0.28179,0.19738 -0.22897,0.36596 0.17166,0.54782 0.42828,0.1944 0.37589,0.18707 0.57513,0.0804 z m -4.36868,-1.00642 c 0.0718,-0.11614 -0.0403,-0.3463 -0.16868,-0.3463 -0.17068,0 -0.23508,0.1612 -0.11986,0.30004 0.11712,0.14112 0.21974,0.15757 0.28854,0.0463 z m -8.80409,7.86073 c -0.0307,-0.0497 -0.0376,-0.10846 -0.0155,-0.13065 0.0222,-0.0222 0.0629,0.0184 0.0905,0.0903 0.0572,0.14919 0.008,0.17543 -0.075,0.0403 z m 21.68763,-13.26344 c -0.11452,-0.11452 -0.0319,-0.19738 0.40085,-0.40211 0.43424,-0.20543 0.85667,-0.29362 0.6861,-0.14324 -0.18765,0.16544 -1.03948,0.59282 -1.08695,0.54535 z"
           id="path3730" />
      </g>
    </g>
    <text
       xml:space="preserve"
       style="font-style:normal;font-variant:normal;font-weight:normal;font-stretch:normal;font-size:26.6667px;line-height:1.25;font-family:Roboto;-inkscape-font-specification:Roboto;font-variant-ligatures:normal;font-variant-position:normal;font-variant-caps:normal;font-variant-numeric:normal;font-variant-alternates:normal;font-variant-east-asian:normal;font-feature-settings:normal;font-variation-settings:normal;text-indent:0;text-align:start;text-decoration-line:none;text-decoration-style:solid;text-decoration-color:#000000;letter-spacing:0px;word-spacing:0px;text-transform:none;writing-mode:lr-tb;direction:ltr;text-orientation:mixed;dominant-baseline:auto;baseline-shift:baseline;text-anchor:start;white-space:normal;shape-padding:0;shape-margin:0;inline-size:0;opacity:1;vector-effect:none;fill:#155e6a;fill-opacity:1;stroke-width:0.999999;stroke-linecap:butt;stroke-linejoin:miter;stroke-miterlimit:4;stroke-dasharray:none;stroke-dashoffset:0;stroke-opacity:1;-inkscape-stroke:none;stop-color:#000000;stop-opacity:1"
       x="162.74362"
       y="448.46555"
       id="text5717"
       transform="matrix(0.26458333,0,0,0.26458333,29.709589,-6.717169)"><tspan
         sodipodi:role="line"
         id="tspan5715"
         x="162.74362"
         y="448.46555"
         style="font-style:normal;font-variant:normal;font-weight:bold;font-stretch:normal;font-size:26.6667px;font-family:Roboto;-inkscape-font-specification:'Roboto Bold';fill:#155e6a;fill-opacity:1">Panse-bêtes</tspan></text>
  </g>
</svg>
