<?xml version="1.0" encoding="UTF-8" standalone="no"?>
<svg
   width="1200pt"
   height="1200pt"
   version="1.1"
   viewBox="0 0 1200 1200"
   id="svg10"
   sodipodi:docname="parametres.svg"
   inkscape:version="1.2.2 (b0a8486541, 2022-12-01)"
   xmlns:inkscape="http://www.inkscape.org/namespaces/inkscape"
   xmlns:sodipodi="http://sodipodi.sourceforge.net/DTD/sodipodi-0.dtd"
   xmlns="http://www.w3.org/2000/svg"
   xmlns:svg="http://www.w3.org/2000/svg">
  <defs
     id="defs14" />
  <sodipodi:namedview
     id="namedview12"
     pagecolor="#ffffff"
     bordercolor="#666666"
     borderopacity="1.0"
     inkscape:showpageshadow="2"
     inkscape:pageopacity="0.0"
     inkscape:pagecheckerboard="0"
     inkscape:deskcolor="#d1d1d1"
     inkscape:document-units="pt"
     showgrid="false"
     inkscape:zoom="0.30305664"
     inkscape:cx="219.43093"
     inkscape:cy="795.2309"
     inkscape:window-width="1674"
     inkscape:window-height="773"
     inkscape:window-x="1970"
     inkscape:window-y="89"
     inkscape:window-maximized="0"
     inkscape:current-layer="svg10" />
  <g
     fill="#ff001b"
     id="g8"
     style="fill:#125e6b;fill-opacity:1;stroke-width:0.807606"
     transform="matrix(1.2382273,0,0,1.2382273,-142.93567,-142.93734)">
    <path
       d="m 190.7,307.73 c 0,7.3633 5.9648,13.332 13.332,13.332 h 141.61 v 65.418 c 0,7.3633 5.9648,13.332 13.332,13.332 h 157.5 c 7.3711,0 13.332,-5.9688 13.332,-13.332 v -65.418 h 466.14 c 7.3711,0 13.332,-5.9688 13.332,-13.332 0,-7.3633 -5.9648,-13.332 -13.332,-13.332 H 529.806 V 228.98 c 0,-7.3633 -5.9648,-13.332 -13.332,-13.332 h -157.5 c -7.3711,0 -13.332,5.9688 -13.332,13.332 v 65.418 h -141.62 c -7.3672,0 -13.332,5.9688 -13.332,13.332 z m 181.61,-65.414 h 130.83 v 130.83 H 372.31 Z"
       id="path2"
       style="fill:#125e6b;fill-opacity:1;stroke-width:0.807606" />
    <path
       d="m 204.04,613.33 h 515.85 v 65.418 c 0,7.3633 5.9648,13.332 13.332,13.332 h 157.5 c 7.3711,0 13.332,-5.9688 13.332,-13.332 l 0.004,-65.418 h 91.914 c 7.3711,0 13.332,-5.9688 13.332,-13.332 0,-7.3632 -5.9648,-13.332 -13.332,-13.332 h -91.914 v -65.418 c 0,-7.3633 -5.9648,-13.332 -13.332,-13.332 h -157.5 c -7.3711,0 -13.332,5.9688 -13.332,13.332 l -0.004,65.418 H 204.04 c -7.3711,0 -13.332,5.9688 -13.332,13.332 0,7.3632 5.9648,13.332 13.332,13.332 z M 746.56,534.58 H 877.39 V 665.41 H 746.56 Z"
       id="path4"
       style="fill:#125e6b;fill-opacity:1;stroke-width:0.807606" />
    <path
       d="m 204.04,905.61 h 299.11 v 65.418 c 0,7.3633 5.9648,13.332 13.332,13.332 h 157.5 c 7.3711,0 13.332,-5.9688 13.332,-13.332 V 905.61 h 308.64 c 7.3711,0 13.332,-5.9688 13.332,-13.332 0,-7.3633 -5.9648,-13.332 -13.332,-13.332 l -308.64,-0.004 v -65.418 c 0,-7.3633 -5.9648,-13.332 -13.332,-13.332 h -157.5 c -7.3711,0 -13.332,5.9688 -13.332,13.332 v 65.418 H 204.03 c -7.3711,0 -13.332,5.9688 -13.332,13.332 0,7.3672 5.9648,13.336 13.332,13.336 z M 529.82,826.86 H 660.65 V 957.69 H 529.82 Z"
       id="path6"
       style="fill:#125e6b;fill-opacity:1;stroke-width:0.807606" />
  </g>
</svg>
