<?xml version="1.0" encoding="UTF-8" standalone="no"?>
<svg
   xml:space="preserve"
   version="1.1"
   style="shape-rendering:geometricPrecision;text-rendering:geometricPrecision;image-rendering:optimizeQuality;"
   viewBox="0 0 64 64"
   x="0px"
   y="0px"
   fill-rule="evenodd"
   clip-rule="evenodd"
   id="svg10"
   sodipodi:docname="profil.svg"
   inkscape:version="1.1.2 (0a00cf5339, 2022-02-04)"
   xmlns:inkscape="http://www.inkscape.org/namespaces/inkscape"
   xmlns:sodipodi="http://sodipodi.sourceforge.net/DTD/sodipodi-0.dtd"
   xmlns="http://www.w3.org/2000/svg"
   xmlns:svg="http://www.w3.org/2000/svg"><sodipodi:namedview
     id="namedview12"
     pagecolor="#ffffff"
     bordercolor="#666666"
     borderopacity="1.0"
     inkscape:pageshadow="2"
     inkscape:pageopacity="0.0"
     inkscape:pagecheckerboard="0"
     showgrid="false"
     inkscape:zoom="13.1875"
     inkscape:cx="32.037915"
     inkscape:cy="32"
     inkscape:window-width="1920"
     inkscape:window-height="1043"
     inkscape:window-x="1920"
     inkscape:window-y="0"
     inkscape:window-maximized="1"
     inkscape:current-layer="svg10" /><defs
     id="defs4"><style
       type="text/css"
       id="style2">
   
    .fil0 {fill:black;fill-rule:nonzero}
   
  </style></defs><g
     id="g8"
     style="fill:#125e6b;fill-opacity:1"><path
       class="fil0"
       d="M41.66 7c5.31,5.32 5.32,14.01 0.01,19.33 -5.32,5.31 -14.02,5.32 -19.33,0.01 -5.31,-5.31 -5.32,-14.02 -0.01,-19.33 5.32,-5.32 14.02,-5.32 19.33,-0.01zm-10.01 50c-0.56,0 -1,-0.45 -1,-1 0,-0.55 0.44,-1 1,-1l0.74 0c6.01,-0.09 11.78,-2.25 16.36,-6.14 0.42,-0.36 1.05,-0.31 1.4,0.12 0.36,0.42 0.31,1.05 -0.11,1.4 -4.93,4.19 -11.16,6.51 -17.62,6.61l-0.77 0.01zm21.18 -9.35c-0.36,0.41 -0.99,0.46 -1.4,0.09 -0.42,-0.36 -0.46,-0.99 -0.1,-1.4l0.58 -0.67c0.35,-0.42 0.99,-0.48 1.41,-0.12 0.42,0.35 0.47,0.98 0.11,1.41l-0.6 0.69zm-7.12 8.03c4.02,-2.08 7.52,-5.05 10.22,-8.65l-1.38 -5.8c-0.2,-1.42 -0.76,-2.61 -1.65,-3.57 -0.91,-0.99 -2.18,-1.77 -3.78,-2.36l-8.71 -2.5c-5.22,2.72 -11.6,2.72 -16.82,0l-8.71 2.5c-1.6,0.59 -2.87,1.37 -3.78,2.36 -0.89,0.97 -1.45,2.16 -1.66,3.59l-1.37 5.78c2.7,3.6 6.19,6.57 10.22,8.65 8.52,4.4 18.9,4.4 27.42,0zm-28.34 1.77c-4.42,-2.28 -8.24,-5.58 -11.16,-9.58 -0.18,-0.23 -0.26,-0.54 -0.19,-0.85l1.45 -6.1c0.27,-1.83 1.01,-3.36 2.16,-4.61 1.14,-1.24 2.68,-2.2 4.58,-2.89l9.22 -2.65c0.25,-0.07 0.51,-0.05 0.75,0.08 4.8,2.65 10.84,2.65 15.64,0 0.22,-0.12 0.49,-0.16 0.75,-0.08l9.22 2.65c1.9,0.69 3.44,1.65 4.58,2.89 1.15,1.25 1.89,2.78 2.16,4.61l1.45 6.1c0.06,0.27 0.01,0.57 -0.17,0.82 -2.91,4.01 -6.75,7.32 -11.18,9.61 -9.1,4.7 -20.16,4.71 -29.26,0zm22.88 -49.04c-4.53,-4.53 -11.97,-4.52 -16.5,0 -4.53,4.54 -4.53,11.98 0,16.52 4.53,4.52 11.97,4.53 16.5,0 4.53,-4.53 4.54,-11.98 0,-16.52z"
       id="path6"
       style="fill:#125e6b;fill-opacity:1" /></g></svg>
