<?xml version="1.0" encoding="UTF-8" standalone="no"?>
<svg
   width="1200pt"
   height="1200pt"
   version="1.1"
   viewBox="0 0 1200 1200"
   id="svg4"
   sodipodi:docname="sign_in.svg"
   inkscape:version="1.1.2 (0a00cf5339, 2022-02-04)"
   xmlns:inkscape="http://www.inkscape.org/namespaces/inkscape"
   xmlns:sodipodi="http://sodipodi.sourceforge.net/DTD/sodipodi-0.dtd"
   xmlns="http://www.w3.org/2000/svg"
   xmlns:svg="http://www.w3.org/2000/svg">
  <defs
     id="defs8" />
  <sodipodi:namedview
     id="namedview6"
     pagecolor="#ffffff"
     bordercolor="#666666"
     borderopacity="1.0"
     inkscape:pageshadow="2"
     inkscape:pageopacity="0.0"
     inkscape:pagecheckerboard="0"
     inkscape:document-units="pt"
     showgrid="false"
     inkscape:zoom="0.5275"
     inkscape:cx="800.94787"
     inkscape:cy="800"
     inkscape:window-width="1920"
     inkscape:window-height="1043"
     inkscape:window-x="1920"
     inkscape:window-y="0"
     inkscape:window-maximized="1"
     inkscape:current-layer="svg4" />
  <path
     d="m75.625 115.5h739.08c4.1523 0 7.668 1.6562 10.57 4.9688 3.3125 2.9023 4.9805 6.4219 4.9805 10.586v292.93c0 4.1523-1.6562 7.8828-4.9805 11.207-2.9023 2.9023-6.4336 4.3438-10.57 4.3438-4.1406 0-7.8828-1.4414-11.195-4.3438-2.9023-2.9023-4.3555-6.6484-4.3555-11.207v-277.38h-707.98v80.23c0 4.1523-1.6562 7.8711-4.9805 11.195-2.9023 2.9023-6.4336 4.3555-10.57 4.3555-4.1406 0-7.8828-1.4531-11.195-4.3555-2.9023-2.9023-4.3555-6.6367-4.3555-11.195v-95.773c0-4.1641 1.4531-7.6797 4.3555-10.586 3.3086-3.3203 7.0547-4.9766 11.195-4.9766zm15.551 185.33v752.57h370.79c4.1406 0 7.6797 1.4648 10.57 4.3555 3.3242 3.3125 4.9922 7.0547 4.9922 11.195 0 4.1641-1.6562 7.6797-4.9922 10.586-2.8906 3.3125-6.4336 4.9688-10.57 4.9688h-386.34c-4.1406 0-7.8828-1.6562-11.195-4.9688-2.9023-2.9023-4.3555-6.4219-4.3555-10.586v-768.12c0-4.1406 1.4531-7.8594 4.3555-11.184 3.3125-2.9023 7.0547-4.3672 11.195-4.3672 4.1523 0 7.6797 1.4648 10.57 4.3672 3.3125 3.3281 4.9805 7.0586 4.9805 11.188zm511.38-105.72c3.3125-3.3125 7.0547-4.9688 11.195-4.9688h126.29c4.1523 0 7.8711 1.6562 11.207 4.9688 2.8906 2.9023 4.3438 6.4219 4.3438 10.586 0 4.5469-1.4531 8.2812-4.3438 11.184-2.9023 2.9023-6.6484 4.3672-11.207 4.3672l-126.29-0.003906c-4.1406 0-7.8828-1.4648-11.195-4.3672-2.9023-2.8906-4.3555-6.6367-4.3555-11.184-0.003906-4.1641 1.4492-7.6797 4.3516-10.582zm-358.33 149.25h381.98c4.1523 0 7.668 1.4648 10.57 4.3672 3.3125 3.3125 4.9805 7.043 4.9805 11.184 0 4.1641-1.6562 7.6797-4.9805 10.586-2.9023 3.3125-6.4336 4.9688-10.57 4.9688h-381.98c-4.1523 0-7.8828-1.6562-11.207-4.9688-2.9023-2.9023-4.3438-6.4219-4.3438-10.586 0-4.1406 1.4531-7.8594 4.3438-11.184 3.3242-2.9023 7.0547-4.3672 11.207-4.3672zm-11.207 357.64c3.3242-3.3125 7.0547-4.9688 11.207-4.9688h253.2c4.1523 0 7.6797 1.6562 10.586 4.9688 3.3125 2.8906 4.9805 6.4219 4.9805 10.586 0 4.1406-1.6562 7.8594-4.9805 11.184-2.9023 2.9023-6.4336 4.3555-10.586 4.3555h-253.2c-4.1523 0-7.8828-1.4531-11.207-4.3555-2.9023-2.8906-4.3438-6.6367-4.3438-11.184 0-4.1641 1.4414-7.6953 4.3438-10.586zm-4.3438-163.57c0-4.1523 1.4531-7.6797 4.3438-10.586 3.3242-3.3125 7.0547-4.9688 11.207-4.9688h322.87c4.1523 0 7.6797 1.6562 10.57 4.9688 3.3242 2.9023 4.9805 6.4336 4.9805 10.586 0 4.1523-1.6562 7.8711-4.9805 11.195-2.9023 2.8906-6.4336 4.3555-10.57 4.3555h-322.87c-4.1523 0-7.8828-1.4648-11.207-4.3555-2.9023-2.9062-4.3438-6.6367-4.3438-11.195zm822.43-297.3c9.1328 5.3984 17.426 11.41 24.887 18.047l19.285-31.727c-6.6367-7.8711-15.551-13.055-26.746-15.551zm11.195-61.574c30.277 3.3125 51.84 16.598 64.703 39.805 3.3125 5.3867 3.3125 10.777 0 16.176l-29.855 48.516 0.61328 1.2344 9.3359 14.93 0.625 1.2461c14.508 20.734 24.672 36.695 30.48 47.891 2.4961 4.9688 2.2812 10.152-0.625 15.539l-137.48 223.91c-2.0742 3.3125-5.3984 5.6055-9.9609 6.8281-4.1406 0.82813-8.0898 0.21484-11.82-1.8477-3.3242-2.0898-5.6055-5.3867-6.8398-9.9609-0.82812-4.1523-0.20312-8.0898 1.8594-11.809l133.14-215.82-12.445-19.895-263.77 430.39v302.26c0 4.1641-1.6562 7.6797-4.9805 10.586-2.9023 3.3125-6.4336 4.9688-10.57 4.9688l-278.09-0.003906c-4.1523 0-7.8828-1.6562-11.207-4.9688-2.8906-2.9023-4.3438-6.4219-4.3438-10.586 0-4.1406 1.4531-7.8711 4.3438-11.195 3.3242-2.8906 7.0547-4.3555 11.207-4.3555h262.52v-235.7l-69.672 112.57c-0.42188 1.6562-1.6562 3.1211-3.7305 4.3438l-1.2461 1.2461-136.86 89.555c-5.3867 3.7422-10.992 4.3555-16.789 1.8711-5.3984-2.4961-8.0898-7.0547-8.0898-13.691v-6.2148l29.867-154.25 1.8594-5.6055 102.02-165.43c2.0742-3.3125 5.1953-5.6055 9.3359-6.8398 4.1523-0.81641 8.0898-0.20312 11.82 1.8594 3.7305 2.0742 6.2148 5.3867 7.4648 9.9609 0.82812 4.1406 0 8.0742-2.4961 11.797l-100.16 162.96-23.016 118.79 92.699-60.961c-8.293-8.2812-18.047-15.758-29.242-22.379l-22.402-11.195c-4.1406-1.668-7.043-4.3555-8.7109-8.0898-2.0742-3.7305-2.2812-7.668-0.625-11.82 1.6562-4.1406 4.3555-7.043 8.0898-8.7109 4.1406-2.0625 8.0898-2.2695 11.82-0.625 10.777 4.1641 20.113 8.7109 27.996 13.691 12.445 7.4648 23.844 16.379 34.211 26.746l361.46-588.98-8.7188-14.285-8.0898-9.3242c-9.9609-9.9492-21.562-17.207-34.848-21.77-8.293-2.9023-18.238-4.9688-29.855-6.2266l-232.04 378.77c-2.0742 3.7422-5.1836 6.2266-9.3359 7.4648-4.1523 0.82813-8.0898 0-11.82-2.4844-3.7305-2.0742-6.0117-5.1836-6.8398-9.3242-1.2461-4.1523-0.625-8.0898 1.8594-11.809l236.41-386.87c2.9023-4.1406 7.4648-6.6367 13.691-7.4531 11.605 0.40625 23.641 2.0742 36.086 4.9805l26.137-42.91c3.7227-6.2422 8.7031-8.7383 14.918-7.4922zm-174.82 328.39c4.1523-0.81641 8.0898-0.20312 11.82 1.8711 3.3125 2.0625 5.5938 5.375 6.8398 9.9492 0.82812 4.1406 0.20312 8.0742-1.8711 11.809l-160.5 261.23c-3.3125 4.5586-7.8711 6.8398-13.691 6.8398-2.9023 0-5.6055-0.625-8.0898-1.8711-3.3125-2.0625-5.6055-5.3867-6.8398-9.9492-0.82812-4.1406-0.21484-8.0898 1.8711-11.809l160.5-261.23c2.0898-3.3125 5.4023-5.5938 9.9609-6.8398z"
     fill-rule="evenodd"
     id="path2"
     style="fill:#125e6b;fill-opacity:1" />
</svg>
