<?xml version="1.0" encoding="UTF-8" standalone="no"?>
<svg
   width="1200pt"
   height="1200pt"
   version="1.1"
   viewBox="0 0 1200 1200"
   id="svg4"
   sodipodi:docname="stats.svg"
   inkscape:version="1.2.2 (b0a8486541, 2022-12-01)"
   xmlns:inkscape="http://www.inkscape.org/namespaces/inkscape"
   xmlns:sodipodi="http://sodipodi.sourceforge.net/DTD/sodipodi-0.dtd"
   xmlns="http://www.w3.org/2000/svg"
   xmlns:svg="http://www.w3.org/2000/svg">
  <defs
     id="defs8" />
  <sodipodi:namedview
     id="namedview6"
     pagecolor="#ffffff"
     bordercolor="#666666"
     borderopacity="1.0"
     inkscape:showpageshadow="2"
     inkscape:pageopacity="0.0"
     inkscape:pagecheckerboard="0"
     inkscape:deskcolor="#d1d1d1"
     inkscape:document-units="pt"
     showgrid="false"
     inkscape:zoom="0.21255158"
     inkscape:cx="-237.58939"
     inkscape:cy="599.8544"
     inkscape:window-width="1674"
     inkscape:window-height="752"
     inkscape:window-x="50"
     inkscape:window-y="114"
     inkscape:window-maximized="0"
     inkscape:current-layer="svg4" />
  <path
     d="M 1034.8949,171.90708 H 449.72193 c -81.92422,0 -146.29325,64.36903 -146.29325,146.29325 v 585.17299 c 0,81.92422 64.36903,146.29328 146.29325,146.29328 h 585.17297 c 81.9242,0 146.2933,-64.36906 146.2933,-146.29328 V 318.20033 c 0,-81.92422 -64.3691,-146.29325 -146.2933,-146.29325 z m 87.776,672.94894 c 0,49.73971 -38.0363,87.77595 -87.776,87.77595 H 449.72193 c -49.73971,0 -87.77595,-38.03624 -87.77595,-87.77595 V 318.20033 c 0,-49.73971 38.03624,-87.77595 87.77595,-87.77595 h 585.17297 c 49.7397,0 87.776,38.03624 87.776,87.77595 z M 537.49788,347.45898 V 844.85602 H 420.46328 V 347.45898 c 0,-17.55519 11.70346,-29.25865 29.25865,-29.25865 h 58.5173 c 17.55519,0 29.25865,11.70346 29.25865,29.25865 z m 175.5519,175.5519 V 844.85602 H 596.01518 V 523.01088 c 0,-17.55519 11.70346,-29.25865 29.25865,-29.25865 h 58.5173 c 17.55519,0 29.25865,11.70346 29.25865,29.25865 z M 888.60167,347.45898 V 844.85602 H 771.56708 V 347.45898 c 0,-17.55519 11.70346,-29.25865 29.25865,-29.25865 h 58.5173 c 17.55518,0 29.25864,11.70346 29.25864,29.25865 z m 175.55193,175.5519 V 844.85602 H 947.11897 V 523.01088 c 0,-17.55519 11.70346,-29.25865 29.25865,-29.25865 h 58.51728 c 17.5552,0 29.2587,11.70346 29.2587,29.25865 z"
     id="path2"
     style="fill:#155e6a;fill-opacity:1;stroke-width:0.999998" />
</svg>
