<?xml version="1.0" encoding="UTF-8" standalone="no"?>
<svg
   width="1200pt"
   height="1200pt"
   version="1.1"
   viewBox="0 0 1200 1200"
   id="svg4"
   sodipodi:docname="work_in_progress.svg"
   inkscape:version="1.2.2 (b0a8486541, 2022-12-01)"
   xmlns:inkscape="http://www.inkscape.org/namespaces/inkscape"
   xmlns:sodipodi="http://sodipodi.sourceforge.net/DTD/sodipodi-0.dtd"
   xmlns="http://www.w3.org/2000/svg"
   xmlns:svg="http://www.w3.org/2000/svg">
  <defs
     id="defs8" />
  <sodipodi:namedview
     id="namedview6"
     pagecolor="#ffffff"
     bordercolor="#666666"
     borderopacity="1.0"
     inkscape:showpageshadow="2"
     inkscape:pageopacity="0.0"
     inkscape:pagecheckerboard="0"
     inkscape:deskcolor="#d1d1d1"
     inkscape:document-units="pt"
     showgrid="false"
     inkscape:zoom="0.53125"
     inkscape:cx="750.11765"
     inkscape:cy="800"
     inkscape:window-width="1674"
     inkscape:window-height="773"
     inkscape:window-x="1970"
     inkscape:window-y="89"
     inkscape:window-maximized="0"
     inkscape:current-layer="svg4" />
  <path
     d="m1156.5 495c13.246 0 24-10.754 24-24v-321c0-13.246-10.754-24-24-24h-96v-40.164c0-43.609-30.949-79.094-69-79.094s-69 35.484-69 79.094v40.164h-645v-40.164c0-43.609-30.961-79.094-69-79.094s-69 35.484-69 79.094v40.164h-96c-13.246 0-24 10.754-24 24v321c0 13.246 10.754 24 24 24h74.242 0.058593 0.035157 21.66v39.996h-96c-13.246 0-24 10.754-24 24v321c0 13.246 10.754 24 24 24h74.172c0.035156 0 0.085937 0.011718 0.13281 0.011718 0.023438 0 0.046875-0.011718 0.070313-0.011718h21.625v241.25h-42c-13.246 0-24 10.754-24 24 0 13.246 10.754 24 24 24h222c13.246 0 24-10.754 24-24 0-13.246-10.754-24-24-24h-42l0.003906-241.25h50.41c0.035156 0 0.085938 0.011718 0.13281 0.011718 0.023437 0 0.046875-0.011718 0.070312-0.011718h210.04c0.035156 0 0.085937 0.011718 0.13281 0.011718 0.023438 0 0.046875-0.011718 0.070312-0.011718h384.13v241.25h-42c-13.246 0-24 10.754-24 24 0 13.246 10.754 24 24 24h222c13.246 0 24-10.754 24-24 0-13.246-10.754-24-24-24h-42l0.003906-241.25h96c13.246 0 24-10.754 24-24v-321c0-13.246-10.754-24-24-24h-96v-39.996zm-24-48h-138.77l104.96-273h33.805zm-85.246 136-104.96 273h-158.82l104.96-273zm-474.02 273 104.94-273h158.82l-104.98 273zm-210.25 0 104.95-273h158.8l-104.94 273zm-210.24 0 104.95-273h158.82l-104.95 273zm124.75-321v-39.996h50.484 0.058594 0.035156 210.14 0.058594 0.035156 384.17v39.996zm-113.94-87.996h-0.058594-0.058594-10.691l104.95-273h158.82l-104.95 273h-58.008-0.058594-0.058594zm463.19-273-104.94 273h-158.8l104.95-273zm210.25 0-104.95 273h-158.81l104.95-273zm210.25 0-104.96 273h-158.81l104.95-273zm-76.754-88.164c0-16.559 9.8047-31.094 21-31.094s21 14.52 21 31.094v40.164h-42zm-783 0c0-16.559 9.8164-31.094 21-31.094s21 14.52 21 31.094v40.164h-42zm-120 88.164h138.78l-104.95 273h-33.828zm120 321h42v39.996h-42zm-120 87.996h138.77l-104.95 273h-33.816zm162 562.26h-42v-241.26h42zm783 0h-42v-241.26h42zm120-289.26h-138.77l104.96-273h33.805zm-120-321h-42v-39.996h42z"
     fill="#ff001b"
     id="path2" />
</svg>
