<?xml version="1.0" encoding="UTF-8" standalone="no"?>
<svg
   width="1200pt"
   height="1200pt"
   version="1.1"
   viewBox="0 0 1200 1200"
   id="svg4"
   sodipodi:docname="statsDisplayvg.svg"
   inkscape:version="1.2.2 (b0a8486541, 2022-12-01)"
   xmlns:inkscape="http://www.inkscape.org/namespaces/inkscape"
   xmlns:sodipodi="http://sodipodi.sourceforge.net/DTD/sodipodi-0.dtd"
   xmlns="http://www.w3.org/2000/svg"
   xmlns:svg="http://www.w3.org/2000/svg">
  <defs
     id="defs8" />
  <sodipodi:namedview
     id="namedview6"
     pagecolor="#ffffff"
     bordercolor="#666666"
     borderopacity="1.0"
     inkscape:showpageshadow="2"
     inkscape:pageopacity="0.0"
     inkscape:pagecheckerboard="0"
     inkscape:deskcolor="#d1d1d1"
     inkscape:document-units="pt"
     showgrid="false"
     inkscape:zoom="0.53125"
     inkscape:cx="751.05882"
     inkscape:cy="800"
     inkscape:window-width="1717"
     inkscape:window-height="1043"
     inkscape:window-x="1970"
     inkscape:window-y="0"
     inkscape:window-maximized="0"
     inkscape:current-layer="svg4" />
  <path
     d="m229.41 0h741.18c19.492 0 35.293 15.801 35.293 35.293v423.53c0 19.492-15.801 35.293-35.293 35.293h-741.18c-19.492 0-35.293-15.801-35.293-35.293v-423.53c0-19.492 15.801-35.293 35.293-35.293zm348 283 52.941 44.117c12.691 10.578 31.02 10.934 44.113 0.86328l215.42-165.71c7.7266-5.9453 9.1719-17.023 3.2305-24.75l-21.52-27.973c-5.9414-7.7266-17.023-9.1719-24.746-3.2305l-193.02 148.48c1.7969 1.5-7.8086-6.5078-31.23-26.023l-52.941-44.117c-12.184-10.156-29.645-10.934-42.684-1.9062l-214.9 148.78c-8.0117 5.5508-10.012 16.543-4.4648 24.555l20.09 29.02c5.5469 8.0117 16.543 10.012 24.555 4.4648l179.06-123.96c5.5938-3.8711 10.098-6.9922 13.777-9.5391 6.5742 5.4805 16.16 13.469 32.324 26.938zm304.95 634.65c77.973 0 141.18 63.207 141.18 141.18v105.88c0 19.492-15.805 35.293-35.297 35.293h-183.81c4.7227-10.809 7.3438-22.746 7.3438-35.293v-158.92c0-21.996-3.3672-43.211-9.6094-63.164 22.777-15.75 50.41-24.973 80.195-24.973zm-484.51 24.969c-6.2422 19.953-9.6055 41.172-9.6055 63.168v158.92c0 12.547 2.6211 24.484 7.3438 35.293h-183.81c-19.492 0-35.297-15.801-35.297-35.293v-105.88c0-77.969 63.207-141.18 141.18-141.18 29.785 0 57.414 9.2227 80.191 24.969zm43.336 63.168c0-87.625 71.211-158.73 158.82-158.73 87.652 0 158.82 71.188 158.82 158.73v158.92c0 19.492-15.801 35.293-35.293 35.293h-247.06c-19.492 0-35.293-15.801-35.293-35.293zm441.18-141.08c-58.477 0-105.88-47.406-105.88-105.88 0-58.477 47.406-105.88 105.88-105.88 58.48 0 105.88 47.406 105.88 105.88 0 58.477-47.402 105.88-105.88 105.88zm-564.7 0c-58.48 0-105.88-47.406-105.88-105.88 0-58.477 47.402-105.88 105.88-105.88 58.477 0 105.88 47.406 105.88 105.88 0 58.477-47.406 105.88-105.88 105.88zm282.35-70.59c-58.477 0-105.88-47.406-105.88-105.88s47.406-105.88 105.88-105.88 105.88 47.406 105.88 105.88-47.406 105.88-105.88 105.88z"
     fill-rule="evenodd"
     id="path2"
     style="fill:#125e6b;fill-opacity:1" />
</svg>
