<?xml version="1.0" encoding="UTF-8" standalone="no"?>
<svg
   version="1.1"
   x="0px"
   y="0px"
   viewBox="0 0 100 100"
   style="enable-background:new 0 0 100 100;"
   xml:space="preserve"
   id="svg4"
   sodipodi:docname="chiffres_clair.svg"
   inkscape:version="1.1.2 (0a00cf5339, 2022-02-04)"
   xmlns:inkscape="http://www.inkscape.org/namespaces/inkscape"
   xmlns:sodipodi="http://sodipodi.sourceforge.net/DTD/sodipodi-0.dtd"
   xmlns="http://www.w3.org/2000/svg"
   xmlns:svg="http://www.w3.org/2000/svg"><defs
     id="defs8" /><sodipodi:namedview
     id="namedview6"
     pagecolor="#ffffff"
     bordercolor="#666666"
     borderopacity="1.0"
     inkscape:pageshadow="2"
     inkscape:pageopacity="0.0"
     inkscape:pagecheckerboard="0"
     showgrid="false"
     inkscape:zoom="7.82"
     inkscape:cx="50.063939"
     inkscape:cy="50"
     inkscape:window-width="1500"
     inkscape:window-height="991"
     inkscape:window-x="26"
     inkscape:window-y="27"
     inkscape:window-maximized="0"
     inkscape:current-layer="svg4" /><path
     d="M75.409,48.976h-3.386V25.054v-0.019c0-0.265-0.105-0.52-0.293-0.707l-3.576-3.576V9.577c0-0.552-0.447-1-1-1H24.591  c-0.553,0-1,0.448-1,1v61.909c0,0.552,0.447,1,1,1h2.87v2.87c0,0.552,0.447,1,1,1h23.748v3.221c0,0.552,0.447,1,1,1h22.2  c0.553,0,1-0.448,1-1V49.976C76.409,49.424,75.962,48.976,75.409,48.976z M60.415,15.841l8.213,8.213h-8.213V15.841z M27.461,13.447  v57.04h-1.87V10.577h40.563v8.175l-6.013-6.012c-0.188-0.188-0.461-0.293-0.727-0.293v0c-0.001,0-0.002,0-0.002,0H28.461  C27.908,12.447,27.461,12.894,27.461,13.447z M52.209,49.976v24.379H29.461V14.447h28.954v10.607c0,0.552,0.447,1,1,1h10.608v22.922  H53.209C52.656,48.976,52.209,49.424,52.209,49.976z M74.409,78.577h-20.2V50.976h20.2V78.577z M56.524,76.562  c0.078,0,0.155-0.018,0.228-0.055l3.736-1.907c0.167-0.085,0.272-0.257,0.272-0.445v-1.907c0-0.276-0.224-0.5-0.5-0.5h-3.736  c-0.276,0-0.5,0.224-0.5,0.5v3.813c0,0.174,0.091,0.335,0.239,0.426C56.343,76.537,56.434,76.562,56.524,76.562z M57.024,72.749  h2.736v1.101l-2.736,1.396V72.749z M56.524,70.524c0.078,0,0.155-0.018,0.228-0.055l3.736-1.907  c0.167-0.085,0.272-0.257,0.272-0.445V66.21c0-0.276-0.224-0.5-0.5-0.5h-3.736c-0.276,0-0.5,0.224-0.5,0.5v3.814  c0,0.174,0.091,0.335,0.239,0.426C56.343,70.499,56.434,70.524,56.524,70.524z M57.024,66.71h2.736v1.101l-2.736,1.396V66.71z   M56.524,64.486c0.078,0,0.155-0.018,0.228-0.055l3.736-1.907c0.167-0.085,0.272-0.257,0.272-0.445v-1.907  c0-0.276-0.224-0.5-0.5-0.5h-3.736c-0.276,0-0.5,0.224-0.5,0.5v3.813c0,0.174,0.091,0.335,0.239,0.426  C56.343,64.461,56.434,64.486,56.524,64.486z M57.024,60.672h2.736v1.101l-2.736,1.396V60.672z M66.178,71.749H62.44  c-0.276,0-0.5,0.224-0.5,0.5v3.813c0,0.174,0.091,0.335,0.239,0.426c0.079,0.049,0.17,0.074,0.261,0.074  c0.078,0,0.155-0.018,0.228-0.055l3.737-1.907c0.167-0.085,0.272-0.257,0.272-0.445v-1.907  C66.678,71.972,66.454,71.749,66.178,71.749z M65.678,73.849l-2.737,1.396v-2.497h2.737V73.849z M66.178,65.71H62.44  c-0.276,0-0.5,0.224-0.5,0.5v3.814c0,0.174,0.091,0.335,0.239,0.426c0.079,0.049,0.17,0.074,0.261,0.074  c0.078,0,0.155-0.018,0.228-0.055l3.737-1.907c0.167-0.085,0.272-0.257,0.272-0.445V66.21C66.678,65.934,66.454,65.71,66.178,65.71z   M65.678,67.811l-2.737,1.396V66.71h2.737V67.811z M66.178,59.672H62.44c-0.276,0-0.5,0.224-0.5,0.5v3.813  c0,0.174,0.091,0.335,0.239,0.426c0.079,0.049,0.17,0.074,0.261,0.074c0.078,0,0.155-0.018,0.228-0.055l3.737-1.907  c0.167-0.085,0.272-0.257,0.272-0.445v-1.907C66.678,59.896,66.454,59.672,66.178,59.672z M65.678,61.773l-2.737,1.396v-2.497h2.737  V61.773z M72.094,71.749h-3.736c-0.276,0-0.5,0.224-0.5,0.5v3.813c0,0.174,0.091,0.335,0.239,0.426  c0.079,0.049,0.17,0.074,0.261,0.074c0.078,0,0.155-0.018,0.228-0.055l3.736-1.907c0.167-0.085,0.272-0.257,0.272-0.445v-1.907  C72.594,71.972,72.37,71.749,72.094,71.749z M71.594,73.849l-2.736,1.396v-2.497h2.736V73.849z M72.094,65.71h-3.736  c-0.276,0-0.5,0.224-0.5,0.5v3.814c0,0.174,0.091,0.335,0.239,0.426c0.079,0.049,0.17,0.074,0.261,0.074  c0.078,0,0.155-0.018,0.228-0.055l3.736-1.907c0.167-0.085,0.272-0.257,0.272-0.445V66.21C72.594,65.934,72.37,65.71,72.094,65.71z   M71.594,67.811l-2.736,1.396V66.71h2.736V67.811z M72.094,59.672h-3.736c-0.276,0-0.5,0.224-0.5,0.5v3.813  c0,0.174,0.091,0.335,0.239,0.426c0.079,0.049,0.17,0.074,0.261,0.074c0.078,0,0.155-0.018,0.228-0.055l3.736-1.907  c0.167-0.085,0.272-0.257,0.272-0.445v-1.907C72.594,59.896,72.37,59.672,72.094,59.672z M71.594,61.773l-2.736,1.396v-2.497h2.736  V61.773z M56.524,57.365h15.569c0.276,0,0.5-0.224,0.5-0.5v-4.22c0-0.276-0.224-0.5-0.5-0.5H56.524c-0.276,0-0.5,0.224-0.5,0.5v4.22  C56.024,57.141,56.248,57.365,56.524,57.365z M57.024,53.145h14.569v3.22H57.024V53.145z M63.52,36.553c0,0.276-0.224,0.5-0.5,0.5  H36.461c-0.276,0-0.5-0.224-0.5-0.5s0.224-0.5,0.5-0.5H63.02C63.296,36.053,63.52,36.277,63.52,36.553z M63.52,43.265  c0,0.276-0.224,0.5-0.5,0.5H36.461c-0.276,0-0.5-0.224-0.5-0.5s0.224-0.5,0.5-0.5H63.02C63.296,42.765,63.52,42.989,63.52,43.265z   M35.962,29.842c0-0.276,0.224-0.5,0.5-0.5h26.56c0.276,0,0.5,0.224,0.5,0.5s-0.224,0.5-0.5,0.5h-26.56  C36.186,30.342,35.962,30.118,35.962,29.842z"
     id="path2"
     style="fill:#ffffff;fill-opacity:1" /></svg>
