<?xml version="1.0" encoding="UTF-8" standalone="no"?>
<svg
   version="1.1"
   x="0px"
   y="0px"
   viewBox="0 0 100 100"
   id="svg6"
   sodipodi:docname="observations.svg"
   inkscape:version="1.1.2 (0a00cf5339, 2022-02-04)"
   xmlns:inkscape="http://www.inkscape.org/namespaces/inkscape"
   xmlns:sodipodi="http://sodipodi.sourceforge.net/DTD/sodipodi-0.dtd"
   xmlns="http://www.w3.org/2000/svg"
   xmlns:svg="http://www.w3.org/2000/svg">
  <defs
     id="defs10" />
  <sodipodi:namedview
     id="namedview8"
     pagecolor="#ffffff"
     bordercolor="#666666"
     borderopacity="1.0"
     inkscape:pageshadow="2"
     inkscape:pageopacity="0.0"
     inkscape:pagecheckerboard="0"
     showgrid="false"
     inkscape:zoom="3.4338039"
     inkscape:cx="-71.495056"
     inkscape:cy="-7.7173889"
     inkscape:window-width="1920"
     inkscape:window-height="1016"
     inkscape:window-x="0"
     inkscape:window-y="27"
     inkscape:window-maximized="1"
     inkscape:current-layer="g4" />
  <g
     transform="translate(0,-952.36218)"
     id="g4"
     style="fill:#125e6b;fill-opacity:1">
    <path
       style="color:#000000;text-indent:0;text-transform:none;direction:ltr;baseline-shift:baseline;fill:#125e6b;fill-opacity:1;stroke-width:0.814158;enable-background:accumulate"
       d="m 68.707994,1016.0672 c 0,0 0.03236,-26.82767 0.03236,-37.25768 0.0078,-0.22331 -0.07604,-0.44712 -0.220447,-0.60777 l -17.24689,-18.60169 c -0.148872,-0.15532 -0.356541,-0.24292 -0.563503,-0.23776 H 17.783628 c -0.519289,0 -0.781128,0.46733 -0.78395,0.84553 v 71.02457 c 0,0.4427 0.373474,0.8455 0.78395,0.8455 h 26.939857 l -0.576292,-1.691 H 18.567577 V 961.05336 H 49.92556 v 17.75616 c 4.3e-5,0.46695 0.351004,0.84548 0.78395,0.84553 h 16.462941 v 36.04825 M 51.493459,962.24235 66.070061,977.96399 H 51.493459 Z"
       fill="#000000"
       fill-opacity="1"
       stroke="none"
       marker="none"
       visibility="visible"
       display="inline"
       overflow="visible"
       id="path2"
       sodipodi:nodetypes="cccccscscccccccccccccc" />
    <path
       d="m 60.008978,1013.9258 c -9.1723,0 -17.1338,4.6413 -20.875,11.5 -0.166852,0.3014 -0.166852,0.6674 0,0.9688 3.7387,6.8634 11.6981,11.5312 20.875,11.5312 9.1768,0 17.1364,-4.6678 20.875,-11.5312 0.166852,-0.3014 0.166852,-0.6674 0,-0.9688 -3.7411,-6.8587 -11.7026,-11.5 -20.875,-11.5 z m 0,2 c 8.2451,0 15.2772,4.1126 18.75,9.9688 -3.4669,5.871 -10.4925,10.0312 -18.75,10.0312 -8.2576,0 -15.283,-4.1601 -18.75,-10.0312 3.4729,-5.8563 10.505,-9.9688 18.75,-9.9688 z m 0,0 c -5.5111,0 -10,4.4891 -10,10 0,5.5109 4.489,10 10,10 5.511,0 10,-4.4891 10,-10 0,-5.5109 -4.4889,-10 -10,-10 z m 0,2 c 4.4301,0 8,3.5699 8,8 0,4.4301 -3.5698,8 -8,8 -4.4302,0 -8,-3.5699 -8,-8 0,-4.4301 3.5699,-8 8,-8 z"
       style="color:#000000;text-indent:0;text-transform:none;direction:ltr;baseline-shift:baseline;display:inline;overflow:visible;visibility:visible;fill:#125e6b;fill-opacity:1;stroke:none;enable-background:accumulate"
       id="path1193" />
    <path
       d="m 57.238638,994.56163 c 0,0.276 -0.224,0.5 -0.5,0.5 h -26.559 c -0.276,0 -0.5,-0.224 -0.5,-0.5 0,-0.276 0.224,-0.5 0.5,-0.5 h 26.559 c 0.276,0 0.5,0.224 0.5,0.5 z m 0,6.71197 c 0,0.276 -0.224,0.5 -0.5,0.5 h -26.559 c -0.276,0 -0.5,-0.224 -0.5,-0.5 0,-0.276 0.224,-0.5 0.5,-0.5 h 26.559 c 0.276,0 0.5,0.224 0.5,0.5 z m -27.558,-13.42297 c 0,-0.276 0.224,-0.5 0.5,-0.5 h 26.56 c 0.276,0 0.5,0.224 0.5,0.5 0,0.276 -0.224,0.5 -0.5,0.5 h -26.56 c -0.276,0 -0.5,-0.224 -0.5,-0.5 z"
       style="fill:#125e6b;fill-opacity:1"
       id="path884" />
  </g>
</svg>
